<?xml version="1.0" standalone="no"?>
  <!DOCTYPE svg PUBLIC "-//W3C//DTD SVG 1.1//EN" "http://www.w3.org/Graphics/SVG/1.1/DTD/svg11.dtd" >
  <svg>
  <metadata>
  Created by font-carrier
  </metadata>
  <defs>
  <font id="GillSansC" horiz-adv-x="2228" vert-adv-y="2228" >
    <font-face
      
      font-family="GillSansC"
      
      font-weight="400"
      
      font-stretch="normal"
      
      units-per-em="2048"
      
      ascent="1397"
      
      descent="-471"
      
    />
      <missing-glyph />

      

      
      <glyph glyph-name="uni21" unicode="&#x21;" d="M162 1112Q162 1415 276 1415Q391 1415 391 1112Q391 976 379 893L328 541Q319 471 307.50 441.50Q296 412 276 412Q256 412 245 441.50Q234 471 225 541L174 893Q162 976 162 1112M192 191Q192 191 210 209Q228 227 279 227Q330 227 365.50 191Q401 155 401 104Q401 53 365.50 17.50Q330-18 279-18Q228-18 192 17.50Q156 53 156 104Q156 155 192 191Z"  horiz-adv-x="555" vert-adv-y="2048"  />

      
      <glyph glyph-name="uni22" unicode="&#x22;" d="M494 946L446 1227L446 1466L627 1466L627 1227L580 946L494 946M145 946L98 1227L98 1466L279 1466L279 1227L231 946L145 946Z"  horiz-adv-x="724" vert-adv-y="2048"  />

      
      <glyph glyph-name="uni23" unicode="&#x23;" d="M401 1264L549 1264L465 864L862 864L946 1264L1094 1264L1010 864L1196 864L1196 723L981 723L907 375L1196 375L1196 233L879 233L795-166L647-166L731 233L334 233L250-166L102-166L186 233L2 233L2 375L215 375L289 723L2 723L2 864L317 864L401 1264M436 723L362 375L760 375L834 723L436 723Z"  horiz-adv-x="1196" vert-adv-y="2048"  />

      
      <glyph glyph-name="uni24" unicode="&#x24;" d="M963 1221L963 999Q910 1052 824 1097Q738 1142 657 1161L657 756Q831 709 929.50 603.50Q1028 498 1028 360Q1028 311 1014 262Q1000 213 970 166Q940 119 897 81Q854 43 792 16.50Q730-10 657-18L657-242L489-242L489-18Q395-13 305.50 23.50Q216 60 104 125L104 373Q207 281 284.50 238.50Q362 196 489 166L489 608Q302 658 204 757.50Q106 857 106 967Q106 1116 208 1215.50Q310 1315 489 1341L489 1415L657 1415L657 1341Q729 1335 818.50 1301Q908 1267 963 1221M489 811L489 1161Q409 1150 358 1103Q307 1056 307 993Q307 932 351 887.50Q395 843 489 811M657 537L657 168Q831 209 831 344Q831 408 791 453.50Q751 499 657 537Z"  horiz-adv-x="1110" vert-adv-y="2048"  />

      
      <glyph glyph-name="uni25" unicode="&#x25;" d="M1028 455Q962 455 914 407Q866 359 866 293Q866 226 914 178.50Q962 131 1028 131Q1096 131 1143 178.50Q1190 226 1190 293Q1190 359 1142.50 407Q1095 455 1028 455M1028 606Q1156 606 1248.50 514Q1341 422 1341 293Q1341 164 1248.50 72Q1156-20 1028-20Q899-20 807 71.50Q715 163 715 293Q715 422 807 514Q899 606 1028 606M1233 1415L313-20L160-20L1079 1415L1233 1415M365 1413Q493 1413 585.50 1321Q678 1229 678 1100Q678 971 585.50 878.50Q493 786 365 786Q236 786 143.50 878Q51 970 51 1100Q51 1229 143.50 1321Q236 1413 365 1413M365 1262Q299 1262 251 1214Q203 1166 203 1100Q203 1033 251 985.50Q299 938 365 938Q432 938 479 985Q526 1032 526 1100Q526 1166 479 1214Q432 1262 365 1262Z"  horiz-adv-x="1392" vert-adv-y="2048"  />

      
      <glyph glyph-name="uni26" unicode="&#x26;" d="M1014 694L1214 694Q1185 609 1125 512.50Q1065 416 987 328L1270 0L1012 0L852 190Q623-18 410-18Q266-18 161.50 78.50Q57 175 57 313Q57 534 387 725Q229 891 229 1049Q229 1195 327 1282.50Q425 1370 588 1370Q734 1370 829 1283Q924 1196 924 1067Q924 966 863.50 877.50Q803 789 668 694L864 469Q905 510 947.50 574.50Q990 639 1014 694M729 330L502 592Q373 511 315.50 450Q258 389 258 313Q263 253 313 209.50Q363 166 430 166Q565 166 729 330M426 1067Q426 1008 464.50 943.50Q503 879 555 829Q661 895 699 946.50Q737 998 737 1057Q737 1119 692 1159.50Q647 1200 578 1200Q513 1200 469.50 1162Q426 1124 426 1067Z"  horiz-adv-x="1280" vert-adv-y="2048"  />

      
      <glyph glyph-name="uni27" unicode="&#x27;" d="M150 946L102 1227L102 1466L283 1466L283 1227L236 946L150 946Z"  horiz-adv-x="385" vert-adv-y="2048"  />

      
      <glyph glyph-name="uni28" unicode="&#x28;" d="M637 1421Q342 1030 342 475Q342-80 637-471L528-471Q344-289 237.50-35.50Q131 218 131 475Q131 732 237.50 985.50Q344 1239 528 1421L637 1421Z"  horiz-adv-x="661" vert-adv-y="2048"  />

      
      <glyph glyph-name="uni29" unicode="&#x29;" d="M25-471Q319-81 319 475Q319 1031 25 1421L133 1421Q317 1239 423.50 985.50Q530 732 530 475Q530 218 423.50-35.50Q317-289 133-471L25-471Z"  horiz-adv-x="661" vert-adv-y="2048"  />

      
      <glyph glyph-name="uni2a" unicode="&#x2a;" d="M362 1051L100 1141Q58 1155 34 1188Q10 1221 33 1260Q49 1286 73.50 1291.50Q98 1297 122 1287Q146 1277 168 1257L373 1079Q396 1098 414 1102L362 1368Q353 1412 369 1449.50Q385 1487 430 1487Q475 1487 490 1451Q505 1415 496 1368L444 1102Q469 1096 485 1077L690 1255Q710 1273 734 1283Q758 1293 784 1287.50Q810 1282 825 1255Q848 1216 824.50 1185.50Q801 1155 756 1139L500 1051Q504 1039 500 1004L756 915Q798 901 822 868.50Q846 836 823 797Q807 771 782 765.50Q757 760 733.50 770Q710 780 688 799L483 977Q461 962 442 956L494 688Q503 644 487 607Q471 570 426 569Q381 570 366 605Q351 640 360 688L412 956Q388 967 373 981L166 801Q146 783 122 773.50Q98 764 72 769.50Q46 775 31 801Q8 840 31.50 871Q55 902 100 918L360 1008Q352 1028 362 1051Z"  horiz-adv-x="854" vert-adv-y="2048"  />

      
      <glyph glyph-name="uni2b" unicode="&#x2b;" d="M514 1206L682 1206L682 807L1081 807L1081 639L682 639L682 240L514 240L514 639L115 639L115 807L514 807L514 1206Z"  horiz-adv-x="1196" vert-adv-y="2048"  />

      
      <glyph glyph-name="uni2c" unicode="&#x2c;" d="M121-242L121-203Q170-171 189.50-105Q209-39 195 20Q150 22 122 53Q94 84 94 135Q94 186 128 219Q162 252 215 252Q281 252 320.50 198Q360 144 360 53Q360-42 298-126Q236-210 121-242Z"  horiz-adv-x="448" vert-adv-y="2048"  />

      
      <glyph glyph-name="uni2d" unicode="&#x2d;" d="M580 547L580 356L82 356L82 547L580 547Z"  horiz-adv-x="661" vert-adv-y="2048"  />

      
      <glyph glyph-name="uniad" unicode="&#xad;" d="M580 547L580 356L82 356L82 547L580 547Z"  horiz-adv-x="661" vert-adv-y="2048"  />

      
      <glyph glyph-name="uni2e" unicode="&#x2e;" d="M136 191Q136 191 154 209Q172 227 223 227Q274 227 310 191Q346 155 346 104Q346 53 310 17.50Q274-18 223-18Q172-18 136 17.50Q100 53 100 104Q100 155 136 191Z"  horiz-adv-x="448" vert-adv-y="2048"  />

      
      <glyph glyph-name="uni2f" unicode="&#x2f;" d="M16-18L418 1415L561 1415L160-18L16-18Z"  horiz-adv-x="575" vert-adv-y="2048"  />

      
      <glyph glyph-name="uni30" unicode="&#x30;" d="M963 698Q963 376 839 179Q715-18 512-18Q309-18 185 179Q61 376 61 698Q61 911 117 1074Q173 1237 275.50 1326Q378 1415 512 1415Q646 1415 748.50 1326Q851 1237 907 1074Q963 911 963 698M695.50 312Q695.50 312 728.75 382Q762 452 762 698Q762 944 695.50 1084.50Q629 1225 512 1225Q395 1225 328.50 1084.50Q262 944 262 698Q262 452 328.50 312Q395 172 512 172Q629 172 695.50 312Z"  horiz-adv-x="1024" vert-adv-y="2048"  />

      
      <glyph glyph-name="uni31" unicode="&#x31;" d="M672 0L463 0L463 1071L197 852L119 1026L596 1415L672 1415L672 0Z"  horiz-adv-x="1024" vert-adv-y="2048"  />

      
      <glyph glyph-name="uni32" unicode="&#x32;" d="M954 190L954 0L70 0L70 14Q186 154 245.50 227.50Q305 301 402.50 432Q500 563 555 657Q609 750 631 812Q653 874 653 956Q653 1071 585 1145Q517 1219 414 1219Q247 1219 98 1030L98 1282Q265 1415 428 1415Q617 1415 735.50 1293.50Q854 1172 854 979Q854 866 808 752Q762 638 673.50 512.50Q585 387 420 190L954 190Z"  horiz-adv-x="1024" vert-adv-y="2048"  />

      
      <glyph glyph-name="uni33" unicode="&#x33;" d="M166 1165L166 1356Q287 1415 434 1415Q622 1415 734 1316Q846 1217 846 1051Q846 934 805 862Q764 790 668 737Q767 706 817.50 614Q868 522 868 406Q868 219 745 100.50Q622-18 428-18Q286-18 131 61L131 279Q289 172 442 172Q545 172 606.50 233Q668 294 668 395Q668 503 590 569.50Q512 636 369 629L369 813Q505 813 575 866Q645 919 645 1016Q645 1112 579.50 1168.50Q514 1225 403 1225Q300 1225 166 1165Z"  horiz-adv-x="1024" vert-adv-y="2048"  />

      
      <glyph glyph-name="uni34" unicode="&#x34;" d="M815 1415L815 639L965 639L965 459L815 459L815 0L614 0L614 459L23 459L23 551L729 1415L815 1415M610 1036L291 639L614 639L614 1036L610 1036Z"  horiz-adv-x="1024" vert-adv-y="2048"  />

      
      <glyph glyph-name="uni35" unicode="&#x35;" d="M827 1397L827 1217L389 1217L389 866Q619 879 758 753Q897 627 897 428Q897 235 767.50 108.50Q638-18 440-18Q350-18 271.50 2Q193 22 102 68L102 274Q252 172 408 172Q526 172 611 246.50Q696 321 696 424Q696 515 637.50 583.50Q579 652 470.50 679Q362 706 207 670L207 1397L827 1397Z"  horiz-adv-x="1024" vert-adv-y="2048"  />

      
      <glyph glyph-name="uni36" unicode="&#x36;" d="M649 1415L770 1262Q620 1175 502 1035Q384 895 342 750Q450 807 561 807Q728 807 840 690Q952 573 952 399Q952 229 830 105.50Q708-18 541-18Q340-18 215 119Q90 256 90 477Q90 742 235 988.50Q380 1235 649 1415M299 543Q280 457 292 388.50Q304 320 339 272Q374 224 423.50 198Q473 172 528 172Q628 172 690 235Q752 298 752 401Q752 493 686 554.50Q620 616 520 616Q456 616 410.50 601Q365 586 299 543Z"  horiz-adv-x="1024" vert-adv-y="2048"  />

      
      <glyph glyph-name="uni37" unicode="&#x37;" d="M1004 1397L371-18L193 59L705 1206L100 1206L100 1397L1004 1397Z"  horiz-adv-x="1024" vert-adv-y="2048"  />

      
      <glyph glyph-name="uni38" unicode="&#x38;" d="M958 377Q958 210 830.50 96Q703-18 516-18Q326-18 196 97Q66 212 66 379Q66 597 264 713Q185 771 141.50 848.50Q98 926 98 1014Q98 1186 220.50 1300.50Q343 1415 526 1415Q703 1415 820.50 1299Q938 1183 938 1010Q938 928 894 848.50Q850 769 764 713Q859 663 908.50 574Q958 485 958 377M737 1014Q737 1105 676 1165Q615 1225 522 1225Q422 1225 360.50 1168Q299 1111 299 1018Q299 932 364 868.50Q429 805 518 805Q608 805 672.50 867Q737 929 737 1014M758 393Q758 489 689.50 551.50Q621 614 516 614Q403 614 334.50 553Q266 492 266 393Q266 296 335.50 234Q405 172 512 172Q628 172 693 236Q758 300 758 393Z"  horiz-adv-x="1024" vert-adv-y="2048"  />

      
      <glyph glyph-name="uni39" unicode="&#x39;" d="M383-18L260 129Q434 243 545 381Q656 519 686 653Q589 594 469 594Q303 594 188.50 712.50Q74 831 74 1001Q74 1079 105 1153Q136 1227 190 1285.50Q244 1344 325 1379.50Q406 1415 500 1415Q693 1415 818.50 1270Q944 1125 944 905Q944 651 786.50 392Q629 133 383-18M274 1004Q274 913 344 848.50Q414 784 512 784Q618 784 727 860Q737 909 737 973Q737 1075 668.50 1150Q600 1225 504 1225Q404 1225 339 1163Q274 1101 274 1004Z"  horiz-adv-x="1024" vert-adv-y="2048"  />

      
      <glyph glyph-name="uni3a" unicode="&#x3a;" d="M136 902Q136 902 154 920Q172 938 223 938Q274 938 310 902Q346 866 346 815Q346 764 310 728Q274 692 223 692Q172 692 136 728Q100 764 100 815Q100 866 136 902M136 191Q136 191 154 209Q172 227 223 227Q274 227 310 191Q346 155 346 104Q346 53 310 17.50Q274-18 223-18Q172-18 136 17.50Q100 53 100 104Q100 155 136 191Z"  horiz-adv-x="448" vert-adv-y="2048"  />

      
      <glyph glyph-name="uni3b" unicode="&#x3b;" d="M125-236L125-197Q182-148 196.50-99.50Q211-51 207 23Q157 29 127.50 61.50Q98 94 98 143Q98 203 132.50 235.50Q167 268 221 268Q282 268 320 213Q358 158 358 78Q358-37 298-120Q238-203 125-236M310 902Q310 902 328 884Q346 866 346 815Q346 764 310 728Q274 692 223 692Q172 692 136 728Q100 764 100 815Q100 866 136 902Q172 938 223 938Q274 938 310 902Z"  horiz-adv-x="448" vert-adv-y="2048"  />

      
      <glyph glyph-name="uni3c" unicode="&#x3c;" d="M113 641L113 809L1083 1223L1083 1044L313 725L1083 406L1083 227L113 641Z"  horiz-adv-x="1196" vert-adv-y="2048"  />

      
      <glyph glyph-name="uni3d" unicode="&#x3d;" d="M115 1030L1081 1030L1081 862L115 862L115 1030M115 584L1081 584L1081 416L115 416L115 584Z"  horiz-adv-x="1196" vert-adv-y="2048"  />

      
      <glyph glyph-name="uni3e" unicode="&#x3e;" d="M1083 641L113 227L113 406L883 725L113 1044L113 1223L1083 809L1083 641Z"  horiz-adv-x="1196" vert-adv-y="2048"  />

      
      <glyph glyph-name="uni3f" unicode="&#x3f;" d="M168 1219L264 1415Q350 1416 417 1388Q484 1360 520.50 1315Q557 1270 575.50 1219.50Q594 1169 594 1118Q594 1046 569 969.50Q544 893 507.50 831Q471 769 429 702Q387 635 352.50 580.50Q318 526 298 466.50Q278 407 285 358Q220 390 192 434Q164 478 164 547Q164 607 187.50 668Q211 729 244.50 780.50Q278 832 312 882Q346 932 369.50 987.50Q393 1043 393 1094Q393 1156 356 1193.50Q319 1231 258 1231Q237 1231 168 1219M228.50 191Q228.50 191 246.25 209Q264 227 315 227Q366 227 402 191Q438 155 438 104Q438 53 402 17.50Q366-18 315-18Q264-18 228.50 17.50Q193 53 193 104Q193 155 228.50 191Z"  horiz-adv-x="681" vert-adv-y="2048"  />

      
      <glyph glyph-name="uni40" unicode="&#x40;" d="M1825 18L2009 18Q1737-430 1122-430Q650-430 380.50-190Q111 50 111 469Q111 564 127.50 662Q144 760 181 861Q218 962 272.50 1053.50Q327 1145 408 1226Q489 1307 588 1366Q687 1425 818.50 1459Q950 1493 1100 1493Q1346 1493 1542 1393Q1738 1293 1848 1115Q1958 937 1958 713Q1958 579 1907 447.50Q1856 316 1774 217Q1692 118 1582 57Q1472-4 1360-4Q1161-4 1161 164Q1093 86 1013 42Q933-2 858-2Q700-2 596 126.50Q492 255 492 451Q492 568 537 684Q582 800 653.50 887Q725 974 820.50 1028.50Q916 1083 1012 1083Q1104 1083 1181.50 1035.50Q1259 988 1313 899L1348 1055L1528 1055L1360 283Q1348 226 1364 193Q1380 160 1425 160Q1452 160 1496.50 181.50Q1541 203 1595.50 249.50Q1650 296 1697 358.50Q1744 421 1776 515.50Q1808 610 1808 715Q1808 894 1715.50 1038.50Q1623 1183 1459 1265.50Q1295 1348 1092 1348Q915 1348 760.50 1282.50Q606 1217 496 1103Q386 989 323 828.50Q260 668 260 485Q260 121 487-81Q714-283 1124-283Q1370-283 1549.50-200.50Q1729-118 1825 18M678 436Q678 306 739.50 225.50Q801 145 899 145Q986 145 1069 217.50Q1152 290 1203.50 407Q1255 524 1255 647Q1255 780 1192.50 859Q1130 938 1024 938Q938 938 857.50 866.50Q777 795 727.50 678Q678 561 678 436Z"  horiz-adv-x="2068" vert-adv-y="2048"  />

      
      <glyph glyph-name="uni41" unicode="&#x41;" d="M741 1405L1366 0L1161 0L975 412L381 412L205 0L0 0L600 1405L741 1405M668 1098L459 592L893 592L668 1098Z"  horiz-adv-x="1366" vert-adv-y="2048"  />

      
      <glyph glyph-name="uni42" unicode="&#x42;" d="M154 0L154 1397L559 1397Q668 1397 752.50 1366.50Q837 1336 887.50 1284.50Q938 1233 963.50 1170.50Q989 1108 989 1040Q989 931 937 858Q885 785 776 741L776 737Q933 708 1022.50 611Q1112 514 1112 373Q1112 319 1096 268Q1080 217 1043.50 167.50Q1007 118 953 81.50Q899 45 816.50 22.50Q734 0 633 0L154 0M354 1217L354 799L487 799Q782 799 782 1022Q782 1109 725 1163Q668 1217 539 1217L354 1217M354 618L354 180L606 180Q690 180 751.50 199.50Q813 219 845 252Q877 285 891 322Q905 359 905 401Q905 500 827 559Q749 618 596 618L354 618Z"  horiz-adv-x="1153" vert-adv-y="2048"  />

      
      <glyph glyph-name="uni43" unicode="&#x43;" d="M1343 1300L1343 1085Q1092 1231 862 1231Q623 1231 464 1078.50Q305 926 305 696Q305 461 461.50 313.50Q618 166 870 166Q1113 166 1358 324L1358 104Q1245 45 1125.50 13.50Q1006-18 852-18Q701-18 573 26.50Q445 71 359.50 142.50Q274 214 213.50 306.50Q153 399 125.50 493Q98 587 98 678Q98 888 196.50 1056.50Q295 1225 470 1320Q645 1415 864 1415Q1070 1415 1343 1300Z"  horiz-adv-x="1449" vert-adv-y="2048"  />

      
      <glyph glyph-name="uni44" unicode="&#x44;" d="M156 0L156 1397L698 1397Q848 1397 973 1356Q1098 1315 1183.50 1246Q1269 1177 1328.50 1086.50Q1388 996 1415 897.50Q1442 799 1442 698Q1442 591 1409.50 488.50Q1377 386 1313 297.50Q1249 209 1161 142.50Q1073 76 954 38Q835 0 700 0L156 0M356 1217L356 180L676 180Q770 180 850 200Q930 220 986 252.50Q1042 285 1086.50 330Q1131 375 1158.50 422Q1186 469 1203.50 520.50Q1221 572 1228 615Q1235 658 1235 698Q1235 806 1200.50 898Q1166 990 1098 1062.50Q1030 1135 919 1176Q808 1217 666 1217L356 1217Z"  horiz-adv-x="1536" vert-adv-y="2048"  />

      
      <glyph glyph-name="uni45" unicode="&#x45;" d="M946 1397L946 1217L354 1217L354 795L926 795L926 614L354 614L354 180L965 180L965 0L154 0L154 1397L946 1397Z"  horiz-adv-x="1024" vert-adv-y="2048"  />

      
      <glyph glyph-name="uni46" unicode="&#x46;" d="M901 1397L901 1217L356 1217L356 829L901 829L901 649L356 649L356 0L156 0L156 1397L901 1397Z"  horiz-adv-x="960" vert-adv-y="2048"  />

      
      <glyph glyph-name="uni47" unicode="&#x47;" d="M1378 688L1378 96Q1239 35 1116 8.50Q993-18 846-18Q635-18 464.50 73Q294 164 198 326Q102 488 102 690Q102 842 159.50 976.50Q217 1111 316.50 1207.50Q416 1304 555.50 1359.50Q695 1415 852 1415Q975 1415 1080.50 1390Q1186 1365 1350 1296L1350 1094Q1100 1231 848 1231Q699 1231 575 1161Q451 1091 380 968Q309 845 309 696Q309 463 467 314.50Q625 166 874 166Q1008 166 1178 221L1178 508L909 508L909 688L1378 688Z"  horiz-adv-x="1515" vert-adv-y="2048"  />

      
      <glyph glyph-name="uni48" unicode="&#x48;" d="M1337 1397L1337 0L1137 0L1137 608L354 608L354 0L154 0L154 1397L354 1397L354 788L1137 788L1137 1397L1337 1397Z"  horiz-adv-x="1492" vert-adv-y="2048"  />

      
      <glyph glyph-name="uni49" unicode="&#x49;" d="M356 1397L356 0L156 0L156 1397L356 1397Z"  horiz-adv-x="512" vert-adv-y="2048"  />

      
      <glyph glyph-name="uni4a" unicode="&#x4a;" d="M356 1397L356-16Q356-117 335-197.50Q314-278 269.50-340.50Q225-403 149.50-437Q74-471-29-471Q-50-471-90-467L-127-281L-76-281Q-31-281 3.50-274Q38-267 63-255Q88-243 105-221Q122-199 132-176Q142-153 147.50-116Q153-79 154.50-44Q156-9 156 43L156 1397L356 1397Z"  horiz-adv-x="512" vert-adv-y="2048"  />

      
      <glyph glyph-name="uni4b" unicode="&#x4b;" d="M584 735L1341 0L1065 0L354 690L354 0L154 0L154 1397L354 1397L354 758L942 1397L1192 1397L584 735Z"  horiz-adv-x="1343" vert-adv-y="2048"  />

      
      <glyph glyph-name="uni4c" unicode="&#x4c;" d="M352 1397L352 180L983 180L983 0L152 0L152 1397L352 1397Z"  horiz-adv-x="1003" vert-adv-y="2048"  />

      
      <glyph glyph-name="uni4d" unicode="&#x4d;" d="M1452 1397L1452 0L1251 0L1251 1087L1247 1087L817 547L784 547L354 1087L350 1087L350 0L150 0L150 1397L338 1397L801 823L1266 1397L1452 1397Z"  horiz-adv-x="1599" vert-adv-y="2048"  />

      
      <glyph glyph-name="uni4e" unicode="&#x4e;" d="M1446 1397L1446 0L1274 0L340 1075L340 0L152 0L152 1397L311 1397L1257 315L1257 1397L1446 1397Z"  horiz-adv-x="1599" vert-adv-y="2048"  />

      
      <glyph glyph-name="uni4f" unicode="&#x4f;" d="M92 698Q92 813 126 920.50Q160 1028 226 1117.50Q292 1207 382 1274Q472 1341 590.50 1378Q709 1415 842 1415Q1011 1415 1153.50 1357.50Q1296 1300 1391.50 1202.50Q1487 1105 1540 974.50Q1593 844 1593 698Q1593 556 1540.50 427Q1488 298 1393.50 199Q1299 100 1154.50 41Q1010-18 838-18Q671-18 529.50 40.50Q388 99 293 198Q198 297 145 426.50Q92 556 92 698M299 698Q299 469 454 317.50Q609 166 842 166Q958 166 1059 206.50Q1160 247 1231.50 317.50Q1303 388 1344.50 486.50Q1386 585 1386 698Q1386 928 1231.50 1079.50Q1077 1231 842 1231Q688 1231 564 1162.50Q440 1094 369.50 971.50Q299 849 299 698Z"  horiz-adv-x="1685" vert-adv-y="2048"  />

      
      <glyph glyph-name="uni50" unicode="&#x50;" d="M143 1397L580 1397Q798 1397 911 1284Q1024 1171 1024 995Q1024 911 995.50 841Q967 771 910.50 717.50Q854 664 762.50 634Q671 604 553 604L344 604L344 0L143 0L143 1397M344 1217L344 784L571 784Q684 784 750.50 842.50Q817 901 817 1004Q817 1045 805 1081Q793 1117 767 1148.50Q741 1180 693 1198.50Q645 1217 580 1217L344 1217Z"  horiz-adv-x="1044" vert-adv-y="2048"  />

      
      <glyph glyph-name="uni51" unicode="&#x51;" d="M1016 0L1016-2Q1207-83 1318-105Q1429-127 1538-100L1544-106L1364-285Q1177-271 1010.50-196.50Q844-122 678 0Q418 50 255 243.50Q92 437 92 698Q92 854 149 987.50Q206 1121 307 1215Q408 1309 551 1362Q694 1415 862 1415Q1016 1415 1152.50 1359.50Q1289 1304 1386.50 1208.50Q1484 1113 1540.50 979Q1597 845 1597 694Q1597 441 1433.50 245.50Q1270 50 1016 0M854 1231Q734 1231 636.50 1195.50Q539 1160 477.50 1104Q416 1048 374.50 975.50Q333 903 316 833Q299 763 299 696Q299 588 334.50 493.50Q370 399 438 325Q506 251 614 208.50Q722 166 858 166Q1010 166 1133 238Q1256 310 1323.50 430Q1391 550 1391 692Q1391 843 1322 966Q1253 1089 1129.50 1160Q1006 1231 854 1231Z"  horiz-adv-x="1685" vert-adv-y="2048"  />

      
      <glyph glyph-name="uni52" unicode="&#x52;" d="M158 1397L510 1397Q722 1397 845.50 1292Q969 1187 969 1006Q969 885 908.50 796.50Q848 708 735 664Q781 634 820 596Q859 558 901 500.50Q943 443 969 402Q995 361 1047 276Q1100 190 1237 0L997 0L813 287Q746 392 693 457.50Q640 523 595.50 554.50Q551 586 518 596Q485 606 442 606L358 606L358 0L158 0L158 1397M358 1225L358 786L487 786Q636 786 699 849.50Q762 913 762 1014Q762 1225 487 1225L358 1225Z"  horiz-adv-x="1236" vert-adv-y="2048"  />

      
      <glyph glyph-name="uni53" unicode="&#x53;" d="M817 1317L817 1090Q664 1235 489 1235Q392 1235 330 1188.50Q268 1142 268 1069Q268 1015 301.50 969Q335 923 388 888Q441 853 505.50 818Q570 783 634.50 740.50Q699 698 752 648.50Q805 599 838.50 524.50Q872 450 872 360Q872 196 761 89Q650-18 481-18Q262-18 90 111L90 365Q167 267 261.50 214.50Q356 162 459 162Q567 162 626.50 216.50Q686 271 686 338Q686 396 652.50 447Q619 498 566 537.50Q513 577 448.50 615.50Q384 654 319.50 696Q255 738 202 785Q149 832 115.50 898Q82 964 82 1042Q82 1212 198 1313.50Q314 1415 506 1415Q671 1415 817 1317Z"  horiz-adv-x="937" vert-adv-y="2048"  />

      
      <glyph glyph-name="uni54" unicode="&#x54;" d="M1202 1397L1202 1217L719 1217L719 0L518 0L518 1217L35 1217L35 1397L1202 1397Z"  horiz-adv-x="1236" vert-adv-y="2048"  />

      
      <glyph glyph-name="uni55" unicode="&#x55;" d="M1327 1397L1327 549Q1327 285 1169 133.50Q1011-18 707-18Q617-18 533.50 2Q450 22 375 65Q300 108 245 171Q190 234 157.50 325.50Q125 417 125 528L125 1397L326 1397L326 571Q326 454 344 393.50Q362 333 410 285Q529 166 711 166Q925 166 1038 279Q1089 330 1107.50 403Q1126 476 1126 584L1126 1397L1327 1397Z"  horiz-adv-x="1449" vert-adv-y="2048"  />

      
      <glyph glyph-name="uni56" unicode="&#x56;" d="M1237 1397L645-12L604-12L0 1397L201 1397L621 416L1038 1397L1237 1397Z"  horiz-adv-x="1236" vert-adv-y="2048"  />

      
      <glyph glyph-name="uni57" unicode="&#x57;" d="M2132 1397L1565-12L1526-12L1067 1130L604-12L565-12L0 1397L201 1397L586 434L973 1397L1163 1397L1552 434L1933 1397L2132 1397Z"  horiz-adv-x="2134" vert-adv-y="2048"  />

      
      <glyph glyph-name="uni58" unicode="&#x58;" d="M1407 1397L850 723L1446 0L1204 0L729 578L248 0L4 0L606 723L47 1397L291 1397L729 864L1165 1397L1407 1397Z"  horiz-adv-x="1449" vert-adv-y="2048"  />

      
      <glyph glyph-name="uni59" unicode="&#x59;" d="M616 915L995 1397L1237 1397L719 737L719 0L518 0L518 739L0 1397L242 1397L616 915Z"  horiz-adv-x="1236" vert-adv-y="2048"  />

      
      <glyph glyph-name="uni5a" unicode="&#x5a;" d="M922 1217L88 1217L88 1397L1292 1397L403 180L1292 180L1292 0L33 0L922 1217Z"  horiz-adv-x="1323" vert-adv-y="2048"  />

      
      <glyph glyph-name="uni5b" unicode="&#x5b;" d="M653 1397L653 1233L373 1233L373-289L653-289L653-453L176-453L176 1397L653 1397Z"  horiz-adv-x="681" vert-adv-y="2048"  />

      
      <glyph glyph-name="uni5c" unicode="&#x5c;" d="M561-18L418-18L16 1415L160 1415L561-18Z"  horiz-adv-x="575" vert-adv-y="2048"  />

      
      <glyph glyph-name="uni5d" unicode="&#x5d;" d="M29-453L29-289L309-289L309 1233L29 1233L29 1397L506 1397L506-453L29-453Z"  horiz-adv-x="681" vert-adv-y="2048"  />

      
      <glyph glyph-name="uni5e" unicode="&#x5e;" d="M238 596L53 596L408 1397L553 1397L907 596L725 596L479 1194L238 596Z"  horiz-adv-x="960" vert-adv-y="2048"  />

      
      <glyph glyph-name="uni5f" unicode="&#x5f;" d="M-12-154L1036-154L1036-256L-12-256L-12-154Z"  horiz-adv-x="1024" vert-adv-y="2048"  />

      
      <glyph glyph-name="uni60" unicode="&#x60;" d="M328 1339L465 1038L352 1038L123 1339L328 1339Z"  horiz-adv-x="681" vert-adv-y="2048"  />

      
      <glyph glyph-name="uni61" unicode="&#x61;" d="M842 164L842 53Q777 11 742.50-3.50Q708-18 666-18Q606-18 572 4.50Q538 27 526 76Q407-18 279-18Q180-18 116.50 48.50Q53 115 53 207Q53 256 69 295.50Q85 335 109 362.50Q133 390 177.50 415.50Q222 441 262 458Q302 475 367 498L528 555L528 604Q528 689 487.50 727.50Q447 766 362 766Q201 766 72 614L72 813Q179 938 377 938Q525 938 618 861.50Q711 785 711 635L711 162Q711 115 745 115Q777 115 842 164M528 186L528 455Q473 436 437 422.50Q401 409 359.50 388Q318 367 294 347Q270 327 254 299.50Q238 272 238 240Q238 183 275 147Q312 111 369 111Q450 111 528 186Z"  horiz-adv-x="874" vert-adv-y="2048"  />

      
      <glyph glyph-name="uni62" unicode="&#x62;" d="M303 1397L303 854Q421 938 557 938Q729 938 841.50 807.50Q954 677 954 479Q954 246 823.50 114Q693-18 463-18Q372-18 280 0.50Q188 19 121 51L121 1397L303 1397M303 680L303 182Q396 154 487 154Q610 154 689 238Q768 322 768 453Q768 599 698 686.50Q628 774 512 774Q455 774 408 753Q361 732 303 680Z"  horiz-adv-x="1024" vert-adv-y="2048"  />

      
      <glyph glyph-name="uni63" unicode="&#x63;" d="M805 874L805 680Q730 731 672 750.50Q614 770 551 770Q426 770 348 684Q270 598 270 459Q270 318 355 236Q440 154 582 154Q688 154 825 215L825 35Q778 13 700-2.50Q622-18 551-18Q345-18 214.50 111Q84 240 84 442Q84 669 207 803.50Q330 938 539 938Q613 938 672 922.50Q731 907 805 874Z"  horiz-adv-x="897" vert-adv-y="2048"  />

      
      <glyph glyph-name="uni64" unicode="&#x64;" d="M924 1397L924 0L537 0Q331 0 210.50 130Q90 260 90 481Q90 681 219 809.50Q348 938 549 938Q640 938 741 901L741 1397L924 1397M741 154L741 739Q656 774 571 774Q439 774 357.50 686.50Q276 599 276 455Q276 154 557 154L741 154Z"  horiz-adv-x="1044" vert-adv-y="2048"  />

      
      <glyph glyph-name="uni65" unicode="&#x65;" d="M897 266L897 90Q811 33 727.50 7.50Q644-18 530-18Q392-18 288.50 52Q185 122 134.50 231.50Q84 341 84 471Q84 680 203.50 809Q323 938 514 938Q702 938 807.50 809.50Q913 681 913 432L266 432Q310 156 575 156Q730 156 897 266M270 553L733 553Q728 658 671 719Q614 780 518 780Q415 780 352 721.50Q289 663 270 553Z"  horiz-adv-x="980" vert-adv-y="2048"  />

      
      <glyph glyph-name="uni66" unicode="&#x66;" d="M606 1397L606 1219Q565 1235 524 1235Q419 1235 374.50 1177.50Q330 1120 330 1008L330 920L496 920L496 756L330 756L330 0L147 0L147 756L18 756L18 920L147 920L147 987Q147 1115 175.50 1191Q204 1267 264 1327Q394 1457 606 1397Z"  horiz-adv-x="512" vert-adv-y="2048"  />

      
      <glyph glyph-name="uni67" unicode="&#x67;" d="M862 920L862 778L674 778Q728 724 749 680Q770 636 770 578Q770 524 744 464.50Q718 405 684 371Q643 328 574.50 304.50Q506 281 450.50 275.50Q395 270 353 252Q311 234 311 197Q311 161 377.50 134.50Q444 108 592 78Q858 25 858-178Q858-315 743-393Q628-471 424-471Q238-471 119-393Q0-315 0-193Q0-91 55.50-29.50Q111 32 231 61Q139 118 139 178Q139 222 179 258Q219 294 285 309L285 313Q184 356 131 430Q82 500 82 602Q82 750 189.50 835Q297 920 483 920L862 920M606 600Q606 666 553 714Q500 762 428 762Q353 762 299.50 713Q246 664 246 596Q246 521 296.50 474.50Q347 428 430 428Q507 428 556.50 476.50Q606 525 606 600M682-193Q682-152 651.50-121Q621-90 573-74.50Q525-59 476.50-52Q428-45 381-45Q289-45 230.50-84Q172-123 172-184Q172-253 238-289.50Q304-326 428-326Q548-326 615-291Q682-256 682-193Z"  horiz-adv-x="874" vert-adv-y="2048"  />

      
      <glyph glyph-name="uni68" unicode="&#x68;" d="M307 1397L307 799L311 799Q363 865 436 901.50Q509 938 586 938Q727 938 813 842Q899 746 899 563L899 0L717 0L717 569Q717 671 668.50 732Q620 793 537 793Q477 793 424.50 762Q372 731 307 659L307 0L125 0L125 1397L307 1397Z"  horiz-adv-x="1024" vert-adv-y="2048"  />

      
      <glyph glyph-name="uni69" unicode="&#x69;" d="M315 920L315 0L133 0L133 920L315 920M301.50 1274.50Q301.50 1274.50 317.75 1258.25Q334 1242 334 1198Q334 1154 301.50 1122Q269 1090 225 1090Q181 1090 149 1122Q117 1154 117 1198Q117 1242 149 1274.50Q181 1307 225 1307Q269 1307 301.50 1274.50Z"  horiz-adv-x="448" vert-adv-y="2048"  />

      
      <glyph glyph-name="uni6a" unicode="&#x6a;" d="M307 920L307-121Q307-263 263.50-341Q220-419 125-471L-12-336Q125-279 125-135L125 920L307 920M293.50 1274.50Q293.50 1274.50 309.75 1258.25Q326 1242 326 1198Q326 1154 293.50 1122Q261 1090 217 1090Q173 1090 141 1122Q109 1154 109 1198Q109 1242 141 1274.50Q173 1307 217 1307Q261 1307 293.50 1274.50Z"  horiz-adv-x="448" vert-adv-y="2048"  />

      
      <glyph glyph-name="uni6b" unicode="&#x6b;" d="M942 920L549 469L1024 0L778 0L317 469L725 920L942 920M309 1397L309 0L127 0L127 1397L309 1397Z"  horiz-adv-x="980" vert-adv-y="2048"  />

      
      <glyph glyph-name="uni6c" unicode="&#x6c;" d="M315 1397L315 0L133 0L133 1397L315 1397Z"  horiz-adv-x="448" vert-adv-y="2048"  />

      
      <glyph glyph-name="uni6d" unicode="&#x6d;" d="M121 920L303 920L303 799Q442 938 571 938Q753 938 846 772Q915 849 988.50 893.50Q1062 938 1153 938Q1292 938 1375 839.50Q1458 741 1458 578L1458 0L1276 0L1276 569Q1276 669 1221.50 726.50Q1167 784 1085 784Q1042 785 987.50 753Q933 721 881 668L881 0L698 0L698 571Q698 678 651.50 731Q605 784 532 784Q462 784 410.50 758.50Q359 733 303 668L303 0L121 0L121 920Z"  horiz-adv-x="1579" vert-adv-y="2048"  />

      
      <glyph glyph-name="uni6e" unicode="&#x6e;" d="M307 920L307 799L311 799Q363 865 436 901.50Q509 938 586 938Q724 938 811.50 843Q899 748 899 567L899 0L717 0L717 569Q717 671 668.50 732Q620 793 537 793Q477 793 424.50 762Q372 731 307 659L307 0L125 0L125 920L307 920Z"  horiz-adv-x="1024" vert-adv-y="2048"  />

      
      <glyph glyph-name="uni6f" unicode="&#x6f;" d="M559 938Q776 938 916.50 805.50Q1057 673 1057 469Q1057 251 919 116.50Q781-18 559-18Q347-18 210.50 119.50Q74 257 74 469Q74 667 214 802.50Q354 938 559 938M557 774Q428 774 344 687.50Q260 601 260 469Q260 323 342.50 234Q425 145 557 145Q702 145 786 231.50Q870 318 870 467Q870 601 781.50 687.50Q693 774 557 774Z"  horiz-adv-x="1130" vert-adv-y="2048"  />

      
      <glyph glyph-name="uni70" unicode="&#x70;" d="M299 23L299-471L117-471L117 920L432 920Q684 920 817 800Q950 680 950 453Q950 246 818.50 114Q687-18 483-18Q398-18 299 23M299 756L299 186Q383 145 471 145Q598 145 681 233Q764 321 764 455Q764 594 679.50 675Q595 756 465 756L299 756Z"  horiz-adv-x="1024" vert-adv-y="2048"  />

      
      <glyph glyph-name="uni71" unicode="&#x71;" d="M725-471L725 14Q616-18 541-18Q337-18 205.50 114Q74 246 74 453Q74 488 79 525.50Q84 563 98.50 610Q113 657 136 699Q159 741 198 782.50Q237 824 287 853.50Q337 883 410 901.50Q483 920 571 920L907 920L907-471L725-471M725 756L559 756Q503 756 451 738Q399 720 355.50 684.50Q312 649 286 589.50Q260 530 260 455Q260 320 343.50 227.50Q427 135 553 135Q641 135 725 176L725 756Z"  horiz-adv-x="1024" vert-adv-y="2048"  />

      
      <glyph glyph-name="uni72" unicode="&#x72;" d="M141 920L324 920L324 709L328 709Q458 938 594 938Q700 938 813 831L717 674Q676 713 628 738.50Q580 764 547 764Q453 764 388.50 682Q324 600 324 481L324 0L141 0L141 920Z"  horiz-adv-x="811" vert-adv-y="2048"  />

      
      <glyph glyph-name="uni73" unicode="&#x73;" d="M664 862L664 682Q520 778 397 778Q342 778 309 754.50Q276 731 276 694Q276 664 326.50 622.50Q377 581 500 510Q616 434 661.50 378Q707 322 707 252Q707 132 621 57Q535-18 403-18Q318-18 245.50 1Q173 20 84 66L84 262Q260 141 385 141Q444 144 482 171.50Q520 199 520 246Q520 271 496.50 297Q473 323 435 346.50Q397 370 351 395Q305 420 259 450Q213 480 175 513.50Q137 547 113.50 592.50Q90 638 90 688Q90 804 172 871Q254 938 393 938Q521 938 664 862Z"  horiz-adv-x="788" vert-adv-y="2048"  />

      
      <glyph glyph-name="uni74" unicode="&#x74;" d="M342 1110L342 920L633 920L633 756L342 756L342 285Q342 234 364.50 201Q387 168 415 156.50Q443 145 473 145Q568 145 680 213L680 43Q634 17 569-0.50Q504-18 459-18Q314-18 237 61.50Q160 141 160 270L160 756L0 756L0 776L342 1110Z"  horiz-adv-x="681" vert-adv-y="2048"  />

      
      <glyph glyph-name="uni75" unicode="&#x75;" d="M895 0L713 0L713 117Q656 55 581.50 18.50Q507-18 440-18Q298-18 210.50 79Q123 176 123 348L123 920L305 920L305 336Q305 238 353 185.50Q401 133 494 133Q622 133 713 262L713 920L895 920L895 0Z"  horiz-adv-x="1024" vert-adv-y="2048"  />

      
      <glyph glyph-name="uni76" unicode="&#x76;" d="M422-18L6 920L205 920L453 354L694 920L889 920L483-18L422-18Z"  horiz-adv-x="897" vert-adv-y="2048"  />

      
      <glyph glyph-name="uni77" unicode="&#x77;" d="M805 920L1038 362L1278 920L1473 920L1067-18L1010-18L737 625L467-18L410-18L0 920L195 920L436 362L670 920L805 920Z"  horiz-adv-x="1472" vert-adv-y="2048"  />

      
      <glyph glyph-name="uni78" unicode="&#x78;" d="M997 920L618 467L1024 0L791 0L502 330L229 0L0 0L387 467L0 920L229 920L502 604L764 920L997 920Z"  horiz-adv-x="1024" vert-adv-y="2048"  />

      
      <glyph glyph-name="uni79" unicode="&#x79;" d="M897 920L246-471L43-471L356 197L0 920L207 920L455 401L692 920L897 920Z"  horiz-adv-x="897" vert-adv-y="2048"  />

      
      <glyph glyph-name="uni7a" unicode="&#x7a;" d="M827 920L338 164L829 164L829 0L23 0L510 756L43 756L43 920L827 920Z"  horiz-adv-x="854" vert-adv-y="2048"  />

      
      <glyph glyph-name="uni7b" unicode="&#x7b;" d="M57 449L57 612Q176 612 220 694Q264 776 264 946L264 1126Q264 1312 330 1401.50Q396 1491 555 1491L635 1491L635 1335L604 1335Q497 1335 464.50 1295.50Q432 1256 432 1128L432 981Q432 776 386 678Q340 580 223 530Q340 480 386 382.50Q432 285 432 80L432-68Q432-196 464.50-235Q497-274 604-274L635-274L635-430L555-430Q396-430 330-341Q264-252 264-66L264 115Q264 285 220 367Q176 449 57 449Z"  horiz-adv-x="681" vert-adv-y="2048"  />

      
      <glyph glyph-name="uni7c" unicode="&#x7c;" d="M188-471L188 1397L344 1397L344-471L188-471Z"  horiz-adv-x="532" vert-adv-y="2048"  />

      
      <glyph glyph-name="uni7d" unicode="&#x7d;" d="M625 612L625 449Q506 449 462 367Q418 285 418 115L418-66Q418-252 352-341Q286-430 127-430L47-430L47-274L78-274Q185-274 217.50-235Q250-196 250-68L250 80Q250 285 296 382.50Q342 480 459 530Q342 580 296 678Q250 776 250 981L250 1128Q250 1256 217.50 1295.50Q185 1335 78 1335L47 1335L47 1491L127 1491Q286 1491 352 1401.50Q418 1312 418 1126L418 946Q418 776 462 694Q506 612 625 612Z"  horiz-adv-x="681" vert-adv-y="2048"  />

      
      <glyph glyph-name="uni7e" unicode="&#x7e;" d="M51 406L51 575Q208 707 356 707Q395 707 443.50 694Q492 681 525 667.50Q558 654 614 629Q674 602 703 590Q732 578 778.50 564.50Q825 551 860 551Q980 551 1147 688L1147 518Q994 387 848 387Q764 387 592 465Q531 492 501.50 504Q472 516 424.50 529.50Q377 543 342 543Q273 543 205 508Q137 473 51 406Z"  horiz-adv-x="1196" vert-adv-y="2048"  />

      
      <glyph glyph-name="unia4" unicode="&#xa4;" d="M918 463L1055 326L938 209L801 346Q697 274 565 274Q435 274 330 346L193 209L76 326L213 463Q141 565 141 698Q141 827 213 934L76 1071L193 1188L330 1051Q371 1081 435 1101.50Q499 1122 565 1122Q692 1122 801 1051L938 1188L1055 1071L918 934Q952 887 970.50 819Q989 751 989 698Q989 637 969 571.50Q949 506 918 463M748.50 881.50Q748.50 881.50 710.25 919.75Q672 958 565 958Q458 958 381.50 881.50Q305 805 305 698Q305 591 381.50 514.50Q458 438 565 438Q672 438 748.50 514.50Q825 591 825 698Q825 805 748.50 881.50Z"  horiz-adv-x="1130" vert-adv-y="2048"  />

      
      <glyph glyph-name="unia6" unicode="&#xa6;" d="M188-471L188 360L344 360L344-471L188-471M188 700L188 1397L344 1397L344 700L188 700Z"  horiz-adv-x="532" vert-adv-y="2048"  />

      
      <glyph glyph-name="unia7" unicode="&#xa7;" d="M307 1145Q307 1091 332.50 1038.50Q358 986 398.50 941.50Q439 897 488 851Q537 805 585.50 755Q634 705 674.50 650.50Q715 596 740.50 525Q766 454 766 375Q766 291 730 218.50Q694 146 614 66Q686-41 686-166Q686-295 592-383Q498-471 360-471Q262-471 195.50-417.50Q129-364 129-285Q129-234 163-198Q197-162 244-162Q286-162 313-190.50Q340-219 340-258Q340-264 335.50-281Q331-298 330-309Q329-320 340.50-330Q352-340 379-340Q438-340 482-296.50Q526-253 526-195Q526-143 500.50-90.50Q475-38 434.50 9.50Q394 57 345 106.50Q296 156 247 211Q198 266 157.50 324Q117 382 91.50 455Q66 528 66 606Q66 696 98 766Q130 836 201 901Q143 999 143 1102Q143 1136 152 1174.50Q161 1213 184 1256.50Q207 1300 241.50 1334.50Q276 1369 332 1392Q388 1415 457 1415Q561 1415 628.50 1365.50Q696 1316 696 1241Q696 1192 666 1160Q636 1128 590 1128Q554 1128 531 1153.50Q508 1179 508 1208Q508 1230 507 1240.50Q506 1251 501 1263Q496 1275 483 1279.50Q470 1284 449 1284Q383 1284 345 1247Q307 1210 307 1145M287 786Q258 757 239.50 715.50Q221 674 221 639Q221 589 237.50 542.50Q254 496 289.50 449Q325 402 357.50 366.50Q390 331 444 275.50Q498 220 530 184Q606 260 606 358Q606 409 587 455.50Q568 502 531.50 544.50Q495 587 458.50 621.50Q422 656 370.50 703.50Q319 751 287 786Z"  horiz-adv-x="831" vert-adv-y="2048"  />

      
      <glyph glyph-name="unia9" unicode="&#xa9;" d="M999 614L1122 578Q1091 448 993.50 376.50Q896 305 750 305Q571 305 466.50 424.50Q362 544 362 748Q362 935 472.50 1047Q583 1159 766 1159Q897 1159 985.50 1098.50Q1074 1038 1108 924L989 895Q927 1049 756 1049Q639 1049 569.50 961Q500 873 500 727Q500 584 568.50 503Q637 422 758 422Q846 422 911.50 474Q977 526 999 614M1511 737Q1511 531 1410 357.50Q1309 184 1135.50 83Q962-18 756-18Q602-18 462.50 41.50Q323 101 222 202Q121 303 61.50 443Q2 583 2 737Q2 891 61.50 1030.50Q121 1170 222 1271Q323 1372 462.50 1431.50Q602 1491 756 1491Q910 1491 1050 1431.50Q1190 1372 1291 1271Q1392 1170 1451.50 1030.50Q1511 891 1511 737M1301.50 420.50Q1301.50 420.50 1343.75 493.25Q1386 566 1386 737Q1386 908 1301.50 1053Q1217 1198 1072 1282Q927 1366 756 1366Q628 1366 511.50 1316.50Q395 1267 310.50 1182.50Q226 1098 176.50 981.50Q127 865 127 737Q127 609 176.50 492Q226 375 310.50 290.50Q395 206 511.50 156Q628 106 756 106Q927 106 1072 190.50Q1217 275 1301.50 420.50Z"  horiz-adv-x="1515" vert-adv-y="2048"  />

      
      <glyph glyph-name="uniab" unicode="&#xab;" d="M655 461L958 0L778 0L477 461L778 922L958 922L655 461M240 461L543 0L362 0L61 461L362 922L543 922L240 461Z"  horiz-adv-x="1003" vert-adv-y="2048"  />

      
      <glyph glyph-name="uniac" unicode="&#xac;" d="M1081 258L913 258L913 694L113 694L113 862L1081 862L1081 258Z"  horiz-adv-x="1196" vert-adv-y="2048"  />

      
      <glyph glyph-name="uniae" unicode="&#xae;" d="M426 319L426 1130L784 1130Q856 1130 910.50 1109.50Q965 1089 994.50 1056.50Q1024 1024 1038.50 989Q1053 954 1053 918Q1053 820 988.50 755Q924 690 821 684L821 680Q870 663 911.50 615.50Q953 568 1010 477L1108 319L948 319L877 446Q801 582 755.50 623Q710 664 635 664L557 664L557 319L426 319M557 776L745 776Q823 776 868 807Q913 838 913 899Q913 954 873 987Q833 1020 768 1020L557 1020L557 776M1301.50 420.50Q1301.50 420.50 1343.75 493.25Q1386 566 1386 737Q1386 908 1301.50 1053Q1217 1198 1072 1282Q927 1366 756 1366Q628 1366 511.50 1316.50Q395 1267 310.50 1182.50Q226 1098 176.50 981.50Q127 865 127 737Q127 609 176.50 492Q226 375 310.50 290.50Q395 206 511.50 156Q628 106 756 106Q927 106 1072 190.50Q1217 275 1301.50 420.50M1511 737Q1511 531 1410 357.50Q1309 184 1135.50 83Q962-18 756-18Q602-18 462.50 41.50Q323 101 222 202Q121 303 61.50 443Q2 583 2 737Q2 891 61.50 1030.50Q121 1170 222 1271Q323 1372 462.50 1431.50Q602 1491 756 1491Q910 1491 1050 1431.50Q1190 1372 1291 1271Q1392 1170 1451.50 1030.50Q1511 891 1511 737Z"  horiz-adv-x="1515" vert-adv-y="2048"  />

      
      <glyph glyph-name="unib0" unicode="&#xb0;" d="M403 1382Q333 1382 284.50 1333.50Q236 1285 236 1214Q236 1143 284.50 1093.50Q333 1044 403 1044Q474 1044 523.50 1094Q573 1144 573 1214Q573 1284 523.50 1333Q474 1382 403 1382M207.50 1410.50Q207.50 1410.50 247.75 1450.75Q288 1491 403 1491Q518 1491 599 1410.50Q680 1330 680 1214Q680 1099 599.50 1018.50Q519 938 403 938Q288 938 207.50 1018Q127 1098 127 1214Q127 1330 207.50 1410.50Z"  horiz-adv-x="811" vert-adv-y="2048"  />

      
      <glyph glyph-name="unib1" unicode="&#xb1;" d="M115 168L1081 168L1081 0L115 0L115 168M514 1206L682 1206L682 807L1081 807L1081 639L682 639L682 240L514 240L514 639L115 639L115 807L514 807L514 1206Z"  horiz-adv-x="1196" vert-adv-y="2048"  />

      
      <glyph glyph-name="unib5" unicode="&#xb5;" d="M961 920L961 0L793 0L793 109L788 109Q750 41 699.50 11.50Q649-18 573-18Q504-18 455 7.50Q406 33 365 92L360 92L360-352L178-352L178 920L360 920L360 412Q360 268 415 193.50Q470 119 563 119Q664 119 721 195.50Q778 272 778 408L778 920L961 920Z"  horiz-adv-x="1130" vert-adv-y="2048"  />

      
      <glyph glyph-name="uni03BC" unicode="&#x03BC;" d="M961 920L961 0L793 0L793 109L788 109Q750 41 699.50 11.50Q649-18 573-18Q504-18 455 7.50Q406 33 365 92L360 92L360-352L178-352L178 920L360 920L360 412Q360 268 415 193.50Q470 119 563 119Q664 119 721 195.50Q778 272 778 408L778 920L961 920Z"  horiz-adv-x="1130" vert-adv-y="2048"  />

      
      <glyph glyph-name="unib6" unicode="&#xb6;" d="M406-408L406 637Q217 647 109.50 758.50Q2 870 2 1053Q2 1251 124.50 1358.50Q247 1466 473 1466L1106 1466L1106 1303L963 1303L963-408L793-408L793 1303L569 1303L569-408L406-408Z"  horiz-adv-x="1110" vert-adv-y="2048"  />

      
      <glyph glyph-name="unib7" unicode="&#xb7;" d="M179 793.50Q179 793.50 197 811.25Q215 829 266 829Q317 829 353 793.50Q389 758 389 707Q389 656 353 620Q317 584 266 584Q215 584 179 620Q143 656 143 707Q143 758 179 793.50Z"  horiz-adv-x="532" vert-adv-y="2048"  />

      
      <glyph glyph-name="uni2219" unicode="&#x2219;" d="M179 793.50Q179 793.50 197 811.25Q215 829 266 829Q317 829 353 793.50Q389 758 389 707Q389 656 353 620Q317 584 266 584Q215 584 179 620Q143 656 143 707Q143 758 179 793.50Z"  horiz-adv-x="532" vert-adv-y="2048"  />

      
      <glyph glyph-name="unibb" unicode="&#xbb;" d="M764 461L461 922L641 922L942 461L641 0L461 0L764 461M348 461L45 922L225 922L526 461L225 0L45 0L348 461Z"  horiz-adv-x="1003" vert-adv-y="2048"  />

      
      <glyph glyph-name="uni0401" unicode="&#x0401;" d="M946 1397L946 1217L354 1217L354 795L926 795L926 614L354 614L354 180L965 180L965 0L154 0L154 1397L946 1397M264 1738Q264 1738 278 1751.50Q292 1765 332 1765Q372 1765 399 1738Q426 1711 426 1671Q426 1631 399 1603Q372 1575 332 1575Q292 1575 264 1603Q236 1631 236 1671Q236 1711 264 1738M644.50 1737.50Q644.50 1737.50 658.75 1751.25Q673 1765 713 1765Q753 1765 780 1738Q807 1711 807 1671Q807 1631 780 1603Q753 1575 713 1575Q673 1575 644.50 1603Q616 1631 616 1671Q616 1710 644.50 1737.50Z"  horiz-adv-x="1024" vert-adv-y="2048"  />

      
      <glyph glyph-name="uni0402" unicode="&#x0402;" d="M1202 1397L1202 1217L719 1217L719 741Q759 812 853 867Q947 922 1055 922Q1232 922 1350 801.50Q1468 681 1468 498Q1468 383 1427.50 287Q1387 191 1318.50 129.50Q1250 68 1162 34Q1074 0 977 0L928 0L928 164L997 164Q1106 164 1187 255.50Q1268 347 1268 477Q1268 602 1196 671.50Q1124 741 1016 741Q883 741 801 659Q719 577 719 449L719 0L518 0L518 1217L35 1217L35 1397L1202 1397Z"  horiz-adv-x="1521" vert-adv-y="2048"  />

      
      <glyph glyph-name="uni0403" unicode="&#x0403;" d="M946 1397L946 1217L354 1217L354 0L154 0L154 1397L946 1397M602 1864L850 1864L573 1501L438 1501L602 1864Z"  horiz-adv-x="970" vert-adv-y="2048"  />

      
      <glyph glyph-name="uni0404" unicode="&#x0404;" d="M309 795L1028 795L1028 614L307 614Q335 412 487 289Q639 166 866 166Q1109 166 1354 324L1354 104Q1241 45 1121.50 13.50Q1002-18 848-18Q697-18 569 26.50Q441 71 355.50 142.50Q270 214 209.50 306.50Q149 399 121.50 493Q94 587 94 678Q94 888 192.50 1056.50Q291 1225 466 1320Q641 1415 860 1415Q1066 1415 1339 1300L1339 1085Q1088 1231 858 1231Q646 1231 494.50 1109.50Q343 988 309 795Z"  horiz-adv-x="1449" vert-adv-y="2048"  />

      
      <glyph glyph-name="uni0405" unicode="&#x0405;" d="M817 1317L817 1090Q664 1235 489 1235Q392 1235 330 1188.50Q268 1142 268 1069Q268 1015 301.50 969Q335 923 388 888Q441 853 505.50 818Q570 783 634.50 740.50Q699 698 752 648.50Q805 599 838.50 524.50Q872 450 872 360Q872 196 761 89Q650-18 481-18Q262-18 90 111L90 365Q167 267 261.50 214.50Q356 162 459 162Q567 162 626.50 216.50Q686 271 686 338Q686 396 652.50 447Q619 498 566 537.50Q513 577 448.50 615.50Q384 654 319.50 696Q255 738 202 785Q149 832 115.50 898Q82 964 82 1042Q82 1212 198 1313.50Q314 1415 506 1415Q671 1415 817 1317Z"  horiz-adv-x="937" vert-adv-y="2048"  />

      
      <glyph glyph-name="uni0406" unicode="&#x0406;" d="M356 1397L356 0L156 0L156 1397L356 1397M256 1765Q302 1765 332 1735Q362 1705 362 1659Q362 1614 331.50 1582Q301 1550 256 1550Q212 1550 179.50 1582.50Q147 1615 147 1659Q147 1704 179 1734.50Q211 1765 256 1765Z"  horiz-adv-x="512" vert-adv-y="2048"  />

      
      <glyph glyph-name="uni0407" unicode="&#x0407;" d="M356 1397L356 0L156 0L156 1397L356 1397M-7 1736Q-7 1736 7 1749.50Q21 1763 61 1763Q101 1763 128.50 1736Q156 1709 156 1669Q156 1629 128.50 1601Q101 1573 61 1573Q21 1573-7 1601Q-35 1629-35 1669Q-35 1709-7 1736M374 1736Q374 1736 388 1749.50Q402 1763 442 1763Q482 1763 509.50 1736Q537 1709 537 1669Q537 1629 509.50 1601Q482 1573 442 1573Q402 1573 374 1601Q346 1629 346 1669Q346 1709 374 1736Z"  horiz-adv-x="512" vert-adv-y="2048"  />

      
      <glyph glyph-name="uni0408" unicode="&#x0408;" d="M356 1397L356-16Q356-117 335-197.50Q314-278 269.50-340.50Q225-403 149.50-437Q74-471-29-471Q-50-471-90-467L-127-281L-76-281Q-31-281 3.50-274Q38-267 63-255Q88-243 105-221Q122-199 132-176Q142-153 147.50-116Q153-79 154.50-44Q156-9 156 43L156 1397L356 1397Z"  horiz-adv-x="512" vert-adv-y="2048"  />

      
      <glyph glyph-name="uni0409" unicode="&#x0409;" d="M741 1405L1006 809L1307 809Q1425 810 1520.50 777Q1616 744 1676.50 687.50Q1737 631 1769.50 557.50Q1802 484 1802 401Q1802 242 1683.50 129.50Q1565 17 1366 2L1366 0L1161 0L1081 180L1081 182L668 1133L205 0L0 0L600 1405L741 1405M1339 629L1085 629L1286 180L1339 180Q1466 180 1530.50 243.50Q1595 307 1595 393Q1595 497 1523.50 563Q1452 629 1339 629Z"  horiz-adv-x="1851" vert-adv-y="2048"  />

      
      <glyph glyph-name="uni040A" unicode="&#x040A;" d="M1569 0L1137 0L1137 608L354 608L354 0L154 0L154 1397L354 1397L354 788L1137 788L1137 1397L1337 1397L1337 788L1563 788Q1798 788 1928 680Q2058 572 2058 401Q2058 230 1925 115Q1792 0 1569 0M1337 608L1337 180L1595 180Q1722 180 1786.50 243.50Q1851 307 1851 393Q1851 495 1780.50 551.50Q1710 608 1595 608L1337 608Z"  horiz-adv-x="2113" vert-adv-y="2048"  />

      
      <glyph glyph-name="uni040B" unicode="&#x040B;" d="M518 0L518 1217L35 1217L35 1397L1219 1397L1219 1217L719 1217L719 891L991 891Q1197 891 1308 782Q1419 673 1419 471L1419 0L1219 0L1219 467Q1219 593 1150.50 652Q1082 711 977 711L719 711L719 0L518 0Z"  horiz-adv-x="1472" vert-adv-y="2048"  />

      
      <glyph glyph-name="uni040C" unicode="&#x040C;" d="M649 1800L897 1800L621 1438L485 1438L649 1800M154 1397L354 1397L354 829L412 829Q470 829 513 839Q556 849 597.50 875Q639 901 673 951Q707 1001 737 1077Q809 1259 898.50 1328Q988 1397 1139 1397L1169 1397L1169 1217Q1102 1217 1059 1205.50Q1016 1194 985.50 1163Q955 1132 937 1095Q919 1058 895 989Q868 912 813 841.50Q758 771 702 745Q869 667 1006 426L1247 0L1020 0L803 377Q717 525 617 595.50Q517 666 412 666L354 666L354 0L154 0L154 1397Z"  horiz-adv-x="1343" vert-adv-y="2048"  />

      
      <glyph glyph-name="uni040E" unicode="&#x040E;" d="M725 1819L973 1819L696 1456L561 1456L725 1819M219 1397L721 229L1133 1397L1329 1397L809 0Q746-168 664.50-242.50Q583-317 461-317Q361-317 285-268L285-88Q348-154 469-154Q517-154 570.50-110Q624-66 631 0L18 1397L219 1397Z"  horiz-adv-x="1347" vert-adv-y="2048"  />

      
      <glyph glyph-name="uni040F" unicode="&#x040F;" d="M1337 1397L1337 0L881 0L881-256L680-256L680 0L154 0L154 1397L354 1397L354 180L1137 180L1137 1397L1337 1397Z"  horiz-adv-x="1607" vert-adv-y="2048"  />

      
      <glyph glyph-name="uni0410" unicode="&#x0410;" d="M741 1405L1366 0L1161 0L975 412L381 412L205 0L0 0L600 1405L741 1405M668 1098L459 592L893 592L668 1098Z"  horiz-adv-x="1366" vert-adv-y="2048"  />

      
      <glyph glyph-name="uni0411" unicode="&#x0411;" d="M154 0L154 1397L1044 1397L1044 1217L354 1217L354 838L637 838Q862 838 1000.50 725.50Q1139 613 1139 418Q1139 226 1000 113Q861 0 637 0L154 0M354 657L354 180L662 180Q783 180 857.50 249Q932 318 932 418Q932 534 853.50 595.50Q775 657 621 657L354 657Z"  horiz-adv-x="1202" vert-adv-y="2048"  />

      
      <glyph glyph-name="uni0412" unicode="&#x0412;" d="M154 0L154 1397L559 1397Q668 1397 752.50 1366.50Q837 1336 887.50 1284.50Q938 1233 963.50 1170.50Q989 1108 989 1040Q989 931 937 858Q885 785 776 741L776 737Q933 708 1022.50 611Q1112 514 1112 373Q1112 319 1096 268Q1080 217 1043.50 167.50Q1007 118 953 81.50Q899 45 816.50 22.50Q734 0 633 0L154 0M354 1217L354 799L487 799Q782 799 782 1022Q782 1109 725 1163Q668 1217 539 1217L354 1217M354 618L354 180L606 180Q690 180 751.50 199.50Q813 219 845 252Q877 285 891 322Q905 359 905 401Q905 500 827 559Q749 618 596 618L354 618Z"  horiz-adv-x="1153" vert-adv-y="2048"  />

      
      <glyph glyph-name="uni0413" unicode="&#x0413;" d="M946 1397L946 1217L354 1217L354 0L154 0L154 1397L946 1397Z"  horiz-adv-x="970" vert-adv-y="2048"  />

      
      <glyph glyph-name="uni0414" unicode="&#x0414;" d="M1511 180L1511-256L1307-256L1307 0L221 0L221-256L16-256L16 180L221 180L682 1405L823 1405L1307 180L1511 180M750 1112L422 180L1104 180L750 1112Z"  horiz-adv-x="1531" vert-adv-y="2048"  />

      
      <glyph glyph-name="uni0415" unicode="&#x0415;" d="M946 1397L946 1217L354 1217L354 795L926 795L926 614L354 614L354 180L965 180L965 0L154 0L154 1397L946 1397Z"  horiz-adv-x="1024" vert-adv-y="2048"  />

      
      <glyph glyph-name="uni0416" unicode="&#x0416;" d="M942 829L942 1397L1143 1397L1143 829Q1201 829 1244 839Q1287 849 1328.50 875Q1370 901 1404 951Q1438 1001 1468 1077Q1540 1259 1629.50 1328Q1719 1397 1870 1397L1901 1397L1901 1217Q1834 1217 1790.50 1205.50Q1747 1194 1716.50 1163Q1686 1132 1668 1095Q1650 1058 1626 989Q1600 913 1540 842.50Q1480 772 1415 741Q1506 699 1565 650Q1624 601 1686 508L2021 0L1790 0L1518 426Q1456 524 1354.50 595Q1253 666 1143 666L1143 0L942 0L942 666Q832 666 730.50 595Q629 524 567 426L295 0L63 0L399 508Q461 601 520 650Q579 699 670 741Q605 772 545 842.50Q485 913 459 989Q435 1058 417 1095Q399 1132 368.50 1163Q338 1194 294.50 1205.50Q251 1217 184 1217L184 1397L215 1397Q366 1397 455 1328Q544 1259 616 1077Q646 1001 680.50 951Q715 901 756.50 875Q798 849 841 839Q884 829 942 829Z"  horiz-adv-x="2105" vert-adv-y="2048"  />

      
      <glyph glyph-name="uni0417" unicode="&#x0417;" d="M125 1137L125 1323Q211 1363 336 1389Q461 1415 545 1415Q629 1415 700 1394.50Q771 1374 829.50 1332.50Q888 1291 921 1219Q954 1147 954 1051Q954 929 881.50 838.50Q809 748 705 715Q755 700 799.50 672Q844 644 882 604Q920 564 942.50 506.50Q965 449 965 383Q965 285 925 207Q885 129 817 81Q749 33 664 7.50Q579-18 485-18Q402-18 292 2Q182 22 113 57L113 274Q263 172 444 172Q489 172 530 177.50Q571 183 615 198Q659 213 691 236.50Q723 260 743.50 300.50Q764 341 764 393Q764 489 684.50 553.50Q605 618 430 618L223 618L223 797L485 797Q599 797 676.50 867.50Q754 938 754 1024Q754 1125 679.50 1175Q605 1225 485 1225Q412 1225 310 1204Q208 1183 125 1137Z"  horiz-adv-x="1054" vert-adv-y="2048"  />

      
      <glyph glyph-name="uni0418" unicode="&#x0418;" d="M1337 1397L1337 0L1137 0L1137 1026L250-16L154-16L154 1397L354 1397L354 334L1239 1397L1337 1397Z"  horiz-adv-x="1492" vert-adv-y="2048"  />

      
      <glyph glyph-name="uni0419" unicode="&#x0419;" d="M1337 1397L1337 0L1137 0L1137 1026L250-16L154-16L154 1397L354 1397L354 334L1239 1397L1337 1397M807 1796L1055 1796L778 1434L643 1434L807 1796Z"  horiz-adv-x="1492" vert-adv-y="2048"  />

      
      <glyph glyph-name="uni041A" unicode="&#x041A;" d="M154 1397L354 1397L354 829L412 829Q470 829 513 839Q556 849 597.50 875Q639 901 673 951Q707 1001 737 1077Q809 1259 898.50 1328Q988 1397 1139 1397L1169 1397L1169 1217Q1102 1217 1059 1205.50Q1016 1194 985.50 1163Q955 1132 937 1095Q919 1058 895 989Q868 912 813 841.50Q758 771 702 745Q869 667 1006 426L1247 0L1020 0L803 377Q717 525 617 595.50Q517 666 412 666L354 666L354 0L154 0L154 1397Z"  horiz-adv-x="1361" vert-adv-y="2048"  />

      
      <glyph glyph-name="uni041B" unicode="&#x041B;" d="M741 1405L1366 0L1161 0L668 1133L205 0L0 0L600 1405L741 1405Z"  horiz-adv-x="1366" vert-adv-y="2048"  />

      
      <glyph glyph-name="uni041C" unicode="&#x041C;" d="M1452 1397L1452 0L1251 0L1251 1087L1247 1087L817 547L784 547L354 1087L350 1087L350 0L150 0L150 1397L338 1397L801 823L1266 1397L1452 1397Z"  horiz-adv-x="1599" vert-adv-y="2048"  />

      
      <glyph glyph-name="uni041D" unicode="&#x041D;" d="M1337 1397L1337 0L1137 0L1137 608L354 608L354 0L154 0L154 1397L354 1397L354 788L1137 788L1137 1397L1337 1397Z"  horiz-adv-x="1492" vert-adv-y="2048"  />

      
      <glyph glyph-name="uni041E" unicode="&#x041E;" d="M92 698Q92 813 126 920.50Q160 1028 226 1117.50Q292 1207 382 1274Q472 1341 590.50 1378Q709 1415 842 1415Q1011 1415 1153.50 1357.50Q1296 1300 1391.50 1202.50Q1487 1105 1540 974.50Q1593 844 1593 698Q1593 556 1540.50 427Q1488 298 1393.50 199Q1299 100 1154.50 41Q1010-18 838-18Q671-18 529.50 40.50Q388 99 293 198Q198 297 145 426.50Q92 556 92 698M299 698Q299 469 454 317.50Q609 166 842 166Q958 166 1059 206.50Q1160 247 1231.50 317.50Q1303 388 1344.50 486.50Q1386 585 1386 698Q1386 928 1231.50 1079.50Q1077 1231 842 1231Q688 1231 564 1162.50Q440 1094 369.50 971.50Q299 849 299 698Z"  horiz-adv-x="1685" vert-adv-y="2048"  />

      
      <glyph glyph-name="uni041F" unicode="&#x041F;" d="M1337 1397L1337 0L1137 0L1137 1217L354 1217L354 0L154 0L154 1397L1337 1397Z"  horiz-adv-x="1492" vert-adv-y="2048"  />

      
      <glyph glyph-name="uni0420" unicode="&#x0420;" d="M143 1397L580 1397Q798 1397 911 1284Q1024 1171 1024 995Q1024 911 995.50 841Q967 771 910.50 717.50Q854 664 762.50 634Q671 604 553 604L344 604L344 0L143 0L143 1397M344 1217L344 784L571 784Q684 784 750.50 842.50Q817 901 817 1004Q817 1045 805 1081Q793 1117 767 1148.50Q741 1180 693 1198.50Q645 1217 580 1217L344 1217Z"  horiz-adv-x="1044" vert-adv-y="2048"  />

      
      <glyph glyph-name="uni0421" unicode="&#x0421;" d="M1343 1300L1343 1085Q1092 1231 862 1231Q623 1231 464 1078.50Q305 926 305 696Q305 461 461.50 313.50Q618 166 870 166Q1113 166 1358 324L1358 104Q1245 45 1125.50 13.50Q1006-18 852-18Q701-18 573 26.50Q445 71 359.50 142.50Q274 214 213.50 306.50Q153 399 125.50 493Q98 587 98 678Q98 888 196.50 1056.50Q295 1225 470 1320Q645 1415 864 1415Q1070 1415 1343 1300Z"  horiz-adv-x="1449" vert-adv-y="2048"  />

      
      <glyph glyph-name="uni0422" unicode="&#x0422;" d="M1202 1397L1202 1217L719 1217L719 0L518 0L518 1217L35 1217L35 1397L1202 1397Z"  horiz-adv-x="1236" vert-adv-y="2048"  />

      
      <glyph glyph-name="uni0423" unicode="&#x0423;" d="M201 1397L702 229L1114 1397L1311 1397L791 0Q728-168 646-242.50Q564-317 442-317Q342-317 266-268L266-88Q329-154 451-154Q499-154 552-110Q605-66 612 0L0 1397L201 1397Z"  horiz-adv-x="1347" vert-adv-y="2048"  />

      
      <glyph glyph-name="uni0424" unicode="&#x0424;" d="M741 1272L741 1397L942 1397L942 1272Q1077 1272 1195 1233.50Q1313 1195 1401.50 1123.50Q1490 1052 1541.50 942Q1593 832 1593 698Q1593 570 1541.50 462.50Q1490 355 1401.50 283Q1313 211 1194.50 171Q1076 131 942 131L942 0L741 0L741 131Q607 131 488.50 171Q370 211 282 283Q194 355 143 462.50Q92 570 92 698Q92 832 143 942Q194 1052 282.50 1123.50Q371 1195 488.50 1233.50Q606 1272 741 1272M1386 698Q1386 888 1261 987.50Q1136 1087 942 1087L942 315Q1068 315 1166 355.50Q1264 396 1325 484Q1386 572 1386 698M299 700Q299 573 359.50 484.50Q420 396 517.50 355.50Q615 315 741 315L741 1087Q648 1087 569 1063Q490 1039 429 993Q368 947 333.50 871.50Q299 796 299 700Z"  horiz-adv-x="1685" vert-adv-y="2048"  />

      
      <glyph glyph-name="uni0425" unicode="&#x0425;" d="M1407 1397L850 723L1446 0L1204 0L729 578L248 0L4 0L606 723L47 1397L291 1397L729 864L1165 1397L1407 1397Z"  horiz-adv-x="1449" vert-adv-y="2048"  />

      
      <glyph glyph-name="uni0426" unicode="&#x0426;" d="M1337 1397L1337 180L1550 180L1550-256L1350-256L1350 0L154 0L154 1397L354 1397L354 180L1137 180L1137 1397L1337 1397Z"  horiz-adv-x="1607" vert-adv-y="2048"  />

      
      <glyph glyph-name="uni0427" unicode="&#x0427;" d="M1090 1397L1090 0L889 0L889 512L723 512Q610 512 514.50 528Q419 544 332.50 582.50Q246 621 186 681Q126 741 90.50 834Q55 927 55 1047L55 1397L256 1397L256 1028Q256 945 279.50 884.50Q303 824 342.50 787.50Q382 751 443 729Q504 707 568.50 699.50Q633 692 717 692L889 692L889 1397L1090 1397Z"  horiz-adv-x="1245" vert-adv-y="2048"  />

      
      <glyph glyph-name="uni0428" unicode="&#x0428;" d="M840 180L846 174L846 1397L1047 1397L1047 180L1532 180L1532 1397L1733 1397L1733 0L154 0L154 1397L354 1397L354 180L840 180Z"  horiz-adv-x="1886" vert-adv-y="2048"  />

      
      <glyph glyph-name="uni0429" unicode="&#x0429;" d="M840 180L846 174L846 1397L1047 1397L1047 180L1532 180L1532 1397L1733 1397L1733 180L1939 180L1939-256L1739-256L1739 0L154 0L154 1397L354 1397L354 180L840 180Z"  horiz-adv-x="1988" vert-adv-y="2048"  />

      
      <glyph glyph-name="uni042A" unicode="&#x042A;" d="M696 0L264 0L264 1227L-51 1227L-51 1397L465 1397L465 809L690 809Q808 809 901 776.50Q994 744 1051.50 687Q1109 630 1139 557.50Q1169 485 1169 401Q1169 228 1043 114Q917 0 696 0M465 629L465 180L723 180Q848 180 905.50 242.50Q963 305 963 393Q963 499 898.50 564Q834 629 723 629L465 629Z"  horiz-adv-x="1263" vert-adv-y="2048"  />

      
      <glyph glyph-name="uni042B" unicode="&#x042B;" d="M1507 1397L1507 0L1307 0L1307 1397L1507 1397M586 0L154 0L154 1397L354 1397L354 809L580 809Q698 809 791 776.50Q884 744 941.50 687Q999 630 1029 557.50Q1059 485 1059 401Q1059 228 933 114Q807 0 586 0M354 629L354 180L612 180Q737 180 794.50 242.50Q852 305 852 393Q852 499 787.50 564Q723 629 612 629L354 629Z"  horiz-adv-x="1665" vert-adv-y="2048"  />

      
      <glyph glyph-name="uni042C" unicode="&#x042C;" d="M586 0L154 0L154 1397L354 1397L354 809L580 809Q698 809 791 776.50Q884 744 941.50 687Q999 630 1029 557.50Q1059 485 1059 401Q1059 228 933 114Q807 0 586 0M354 629L354 180L612 180Q737 180 794.50 242.50Q852 305 852 393Q852 499 787.50 564Q723 629 612 629L354 629Z"  horiz-adv-x="1142" vert-adv-y="2048"  />

      
      <glyph glyph-name="uni042D" unicode="&#x042D;" d="M422 795L1141 795Q1107 988 955.50 1109.50Q804 1231 592 1231Q362 1231 111 1085L111 1300Q384 1415 590 1415Q809 1415 984 1320Q1159 1225 1257.50 1056.50Q1356 888 1356 678Q1356 587 1328.50 493Q1301 399 1240.50 306.50Q1180 214 1094.50 142.50Q1009 71 881 26.50Q753-18 602-18Q448-18 328.50 13.50Q209 45 96 104L96 328Q347 166 584 166Q811 166 963 289Q1115 412 1143 614L422 614L422 795Z"  horiz-adv-x="1449" vert-adv-y="2048"  />

      
      <glyph glyph-name="uni042E" unicode="&#x042E;" d="M354 1397L354 782L571 782Q586 913 645.50 1028.50Q705 1144 799.50 1230Q894 1316 1027.50 1365.50Q1161 1415 1315 1415Q1484 1415 1626.50 1357.50Q1769 1300 1864.50 1202.50Q1960 1105 2013 974.50Q2066 844 2066 698Q2066 556 2013.50 427Q1961 298 1866.50 199Q1772 100 1627.50 41Q1483-18 1311-18Q1188-18 1078.50 14Q969 46 883.50 103Q798 160 732.50 237.50Q667 315 627 407.50Q587 500 573 602L354 602L354 0L154 0L154 1397L354 1397M772 698Q772 469 927 317.50Q1082 166 1315 166Q1469 166 1594 235Q1719 304 1789.50 426Q1860 548 1860 698Q1860 928 1705 1079.50Q1550 1231 1315 1231Q1161 1231 1037 1162.50Q913 1094 842.50 971.50Q772 849 772 698Z"  horiz-adv-x="2158" vert-adv-y="2048"  />

      
      <glyph glyph-name="uni042F" unicode="&#x042F;" d="M659 1397L1079 1397L1079 0L879 0L879 573L823 573Q696 573 605 509Q514 445 408 272L240 0L0 0L199 311Q334 523 455 612Q406 634 370 654.50Q334 675 293.50 708.50Q253 742 227.50 780Q202 818 185 874Q168 930 168 997Q168 1191 303 1294Q438 1397 659 1397M879 745L879 1225L670 1225Q527 1225 451 1163Q375 1101 375 993Q375 947 393 904.50Q411 862 446.50 825.50Q482 789 542.50 767Q603 745 680 745L879 745Z"  horiz-adv-x="1236" vert-adv-y="2048"  />

      
      <glyph glyph-name="uni0430" unicode="&#x0430;" d="M842 164L842 53Q777 11 742.50-3.50Q708-18 666-18Q606-18 572 4.50Q538 27 526 76Q407-18 279-18Q180-18 116.50 48.50Q53 115 53 207Q53 256 69 295.50Q85 335 109 362.50Q133 390 177.50 415.50Q222 441 262 458Q302 475 367 498L528 555L528 604Q528 689 487.50 727.50Q447 766 362 766Q201 766 72 614L72 813Q179 938 377 938Q525 938 618 861.50Q711 785 711 635L711 162Q711 115 745 115Q777 115 842 164M528 186L528 455Q473 436 437 422.50Q401 409 359.50 388Q318 367 294 347Q270 327 254 299.50Q238 272 238 240Q238 183 275 147Q312 111 369 111Q450 111 528 186Z"  horiz-adv-x="874" vert-adv-y="2048"  />

      
      <glyph glyph-name="uni0431" unicode="&#x0431;" d="M555-18Q449-18 365.50 15.50Q282 49 229.50 104.50Q177 160 143 237Q109 314 95.50 394.50Q82 475 82 565Q82 771 117 916.50Q152 1062 232.50 1167.50Q313 1273 444 1331.50Q575 1390 768 1409L975 1430L958 1239L770 1227Q681 1221 613 1207Q545 1193 477.50 1160Q410 1127 366 1075.50Q322 1024 295 940Q268 856 268 743Q314 812 364 857Q414 902 464 921Q514 940 550 946Q586 952 629 952Q796 952 909 816.50Q1022 681 1022 483Q1022 266 892.50 124Q763-18 555-18M836 477Q836 608 754 694Q672 780 555 780Q443 780 355.50 693Q268 606 268 477Q268 328 353 241Q438 154 555 154Q676 154 756 240Q836 326 836 477Z"  horiz-adv-x="1091" vert-adv-y="2048"  />

      
      <glyph glyph-name="uni0432" unicode="&#x0432;" d="M125 0L125 920L473 920Q621 920 708 853Q795 786 795 676Q795 602 755.50 547.50Q716 493 659 467Q733 434 775 386.50Q817 339 817 256Q817 205 800 161Q783 117 747.50 80Q712 43 649.50 21.50Q587 0 504 0L125 0M307 756L307 520L444 520Q608 520 608 653Q608 704 558 730Q508 756 444 756L307 756M307 399L307 164L473 164Q631 164 631 283Q631 340 572.50 369.50Q514 399 420 399L307 399Z"  horiz-adv-x="897" vert-adv-y="2048"  />

      
      <glyph glyph-name="uni0433" unicode="&#x0433;" d="M315 756L315 0L133 0L133 920L719 920L719 756L315 756Z"  horiz-adv-x="741" vert-adv-y="2048"  />

      
      <glyph glyph-name="uni0434" unicode="&#x0434;" d="M1110-207L930-207L930 0L201 0L201-207L20-207L20 164L158 164L530 938L633 938L979 164L1110 164L1110-207M788 164L569 647L346 164L788 164Z"  horiz-adv-x="1136" vert-adv-y="2048"  />

      
      <glyph glyph-name="uni0435" unicode="&#x0435;" d="M897 266L897 90Q811 33 727.50 7.50Q644-18 530-18Q392-18 288.50 52Q185 122 134.50 231.50Q84 341 84 471Q84 680 203.50 809Q323 938 514 938Q702 938 807.50 809.50Q913 681 913 432L266 432Q310 156 575 156Q730 156 897 266M270 553L733 553Q728 658 671 719Q614 780 518 780Q415 780 352 721.50Q289 663 270 553Z"  horiz-adv-x="980" vert-adv-y="2048"  />

      
      <glyph glyph-name="uni0436" unicode="&#x0436;" d="M639 539L639 920L821 920L821 539L881 539Q930 539 973.50 577.50Q1017 616 1065 700L1192 920L1391 920L1239 668Q1161 536 1073 469Q1132 443 1175 397.50Q1218 352 1272 260L1421 0L1200 0L1075 250Q1040 320 988.50 357.50Q937 395 879 395L821 395L821 0L639 0L639 395L582 395Q524 395 472 357.50Q420 320 385 250L260 0L39 0L188 260Q242 352 285 397.50Q328 443 387 469Q299 536 221 668L70 920L268 920L395 700Q443 616 487 577.50Q531 539 580 539L639 539Z"  horiz-adv-x="1460" vert-adv-y="2048"  />

      
      <glyph glyph-name="uni0437" unicode="&#x0437;" d="M221 547Q386 547 457 572Q528 597 528 670Q528 719 481 743.50Q434 768 354 768Q205 768 72 688L72 850Q118 886 211 912Q304 938 375 938Q528 938 630.50 874.50Q733 811 733 700Q733 623 679 563Q625 503 551 489Q586 476 618.50 456.50Q651 437 683 409Q715 381 734.50 341Q754 301 754 256Q754 179 720 123Q686 67 626.50 37Q567 7 500.50-6.50Q434-20 356-20Q283-20 183 2.50Q83 25 45 66L45 248Q99 206 182 178Q265 150 326 150Q436 150 491.50 181Q547 212 547 279Q547 343 482.50 374.50Q418 406 326 406L221 406L221 547Z"  horiz-adv-x="798" vert-adv-y="2048"  />

      
      <glyph glyph-name="uni0438" unicode="&#x0438;" d="M948 920L948 0L766 0L766 590L236-20L133-20L133 920L315 920L315 293L850 920L948 920Z"  horiz-adv-x="1075" vert-adv-y="2048"  />

      
      <glyph glyph-name="uni0439" unicode="&#x0439;" d="M616 1313L821 1313L592 1012L479 1012L616 1313M948 920L948 0L766 0L766 590L236-20L133-20L133 920L315 920L315 293L850 920L948 920Z"  horiz-adv-x="1075" vert-adv-y="2048"  />

      
      <glyph glyph-name="uni043A" unicode="&#x043A;" d="M309 920L309 539L385 539Q434 539 477.50 577.50Q521 616 569 700L696 920L895 920L743 668Q664 535 578 469Q636 443 679 397.50Q722 352 776 260L926 0L705 0L580 250Q545 320 493 357.50Q441 395 383 395L309 395L309 0L127 0L127 920L309 920Z"  horiz-adv-x="964" vert-adv-y="2048"  />

      
      <glyph glyph-name="uni043B" unicode="&#x043B;" d="M428 920L496 920L889-18L694-18L455 588L205-18L6-18L428 920Z"  horiz-adv-x="897" vert-adv-y="2048"  />

      
      <glyph glyph-name="uni043C" unicode="&#x043C;" d="M326 920L610 352L881 920L1065 920L1130 0L958 0L901 627L610 0L299 633L252 0L80 0L141 920L326 920Z"  horiz-adv-x="1204" vert-adv-y="2048"  />

      
      <glyph glyph-name="uni043D" unicode="&#x043D;" d="M948 920L948 0L766 0L766 393L315 393L315 0L133 0L133 920L315 920L315 557L766 557L766 920L948 920Z"  horiz-adv-x="1075" vert-adv-y="2048"  />

      
      <glyph glyph-name="uni043E" unicode="&#x043E;" d="M559 938Q776 938 916.50 805.50Q1057 673 1057 469Q1057 251 919 116.50Q781-18 559-18Q347-18 210.50 119.50Q74 257 74 469Q74 667 214 802.50Q354 938 559 938M557 774Q428 774 344 687.50Q260 601 260 469Q260 323 342.50 234Q425 145 557 145Q702 145 786 231.50Q870 318 870 467Q870 601 781.50 687.50Q693 774 557 774Z"  horiz-adv-x="1130" vert-adv-y="2048"  />

      
      <glyph glyph-name="uni043F" unicode="&#x043F;" d="M948 920L948 0L766 0L766 756L315 756L315 0L133 0L133 920L948 920Z"  horiz-adv-x="1075" vert-adv-y="2048"  />

      
      <glyph glyph-name="uni0440" unicode="&#x0440;" d="M299 23L299-471L117-471L117 920L432 920Q684 920 817 800Q950 680 950 453Q950 246 818.50 114Q687-18 483-18Q398-18 299 23M299 756L299 186Q383 145 471 145Q598 145 681 233Q764 321 764 455Q764 594 679.50 675Q595 756 465 756L299 756Z"  horiz-adv-x="1024" vert-adv-y="2048"  />

      
      <glyph glyph-name="uni0441" unicode="&#x0441;" d="M805 874L805 680Q730 731 672 750.50Q614 770 551 770Q426 770 348 684Q270 598 270 459Q270 318 355 236Q440 154 582 154Q688 154 825 215L825 35Q778 13 700-2.50Q622-18 551-18Q345-18 214.50 111Q84 240 84 442Q84 669 207 803.50Q330 938 539 938Q613 938 672 922.50Q731 907 805 874Z"  horiz-adv-x="897" vert-adv-y="2048"  />

      
      <glyph glyph-name="uni0442" unicode="&#x0442;" d="M543 756L543 0L360 0L360 756L37 756L37 920L866 920L866 756L543 756Z"  horiz-adv-x="905" vert-adv-y="2048"  />

      
      <glyph glyph-name="uni0443" unicode="&#x0443;" d="M897 920L246-471L43-471L356 197L0 920L207 920L455 401L692 920L897 920Z"  horiz-adv-x="897" vert-adv-y="2048"  />

      
      <glyph glyph-name="uni0444" unicode="&#x0444;" d="M553 930L553 1397L735 1397L735 930Q861 930 972 870.50Q1083 811 1151 704Q1219 597 1219 469Q1219 340 1152 229Q1085 118 973.50 54Q862-10 735-10L735-473L553-473L553-10Q426-10 314.50 54Q203 118 136.50 229Q70 340 70 469Q70 597 137.50 704Q205 811 316 870.50Q427 930 553 930M1032 467Q1032 585 949.50 678.50Q867 772 735 772L735 147Q869 147 950.50 241.50Q1032 336 1032 467M256 467Q256 336 337.50 241.50Q419 147 553 147L553 772Q421 772 338.50 678.50Q256 585 256 467Z"  horiz-adv-x="1288" vert-adv-y="2048"  />

      
      <glyph glyph-name="uni0445" unicode="&#x0445;" d="M997 920L618 467L1024 0L791 0L502 330L229 0L0 0L387 467L0 920L229 920L502 604L764 920L997 920Z"  horiz-adv-x="1024" vert-adv-y="2048"  />

      
      <glyph glyph-name="uni0446" unicode="&#x0446;" d="M948 920L948 164L1128 164L1128-207L948-207L948 0L133 0L133 920L315 920L315 164L766 164L766 920L948 920Z"  horiz-adv-x="1163" vert-adv-y="2048"  />

      
      <glyph glyph-name="uni0447" unicode="&#x0447;" d="M844 920L844 0L662 0L662 408Q626 365 552 344.50Q478 324 401 324Q229 324 144 428.50Q59 533 59 733L59 920L242 920L242 688Q242 624 253 584Q264 544 290 523Q316 502 349 494.50Q382 487 436 487Q607 487 662 567L662 920L844 920Z"  horiz-adv-x="970" vert-adv-y="2048"  />

      
      <glyph glyph-name="uni0448" unicode="&#x0448;" d="M1354 920L1354 0L125 0L125 920L307 920L307 164L647 164L647 920L829 920L829 164L1171 164L1171 920L1354 920Z"  horiz-adv-x="1495" vert-adv-y="2048"  />

      
      <glyph glyph-name="uni0449" unicode="&#x0449;" d="M1354 920L1354 164L1534 164L1534-207L1354-207L1354 0L125 0L125 920L307 920L307 164L647 164L647 920L829 920L829 164L1171 164L1171 920L1354 920Z"  horiz-adv-x="1587" vert-adv-y="2048"  />

      
      <glyph glyph-name="uni044A" unicode="&#x044A;" d="M152 0L152 799L-39 799L-39 920L334 920L334 610L545 610Q626 610 690.50 582.50Q755 555 793 510Q831 465 850.50 413Q870 361 870 307Q870 251 850.50 198Q831 145 793 100Q755 55 691 27.50Q627 0 545 0L152 0M334 446L334 164L500 164Q589 164 638.50 200Q688 236 688 309Q688 446 500 446L334 446Z"  horiz-adv-x="935" vert-adv-y="2048"  />

      
      <glyph glyph-name="uni044B" unicode="&#x044B;" d="M1161 920L1161 0L979 0L979 920L1161 920M125 0L125 920L307 920L307 610L518 610Q599 610 664 582.50Q729 555 767 510Q805 465 824.50 413Q844 361 844 307Q844 251 824.50 198Q805 145 767 100Q729 55 664.50 27.50Q600 0 518 0L125 0M307 446L307 164L471 164Q560 164 611 200Q662 236 662 309Q662 446 473 446L307 446Z"  horiz-adv-x="1288" vert-adv-y="2048"  />

      
      <glyph glyph-name="uni044C" unicode="&#x044C;" d="M125 0L125 920L307 920L307 610L518 610Q599 610 664 582.50Q729 555 767 510Q805 465 824.50 413Q844 361 844 307Q844 251 824.50 198Q805 145 767 100Q729 55 664.50 27.50Q600 0 518 0L125 0M307 446L307 164L469 164Q559 164 610.50 200Q662 236 662 309Q662 446 469 446L307 446Z"  horiz-adv-x="911" vert-adv-y="2048"  />

      
      <glyph glyph-name="uni044D" unicode="&#x044D;" d="M250 379L250 543L629 543Q607 648 534.50 709Q462 770 358 770Q295 770 237 750.50Q179 731 104 680L104 874Q178 907 237.50 922.50Q297 938 371 938Q580 938 702.50 804Q825 670 825 442Q825 240 694.50 111Q564-18 358-18Q287-18 209-2.50Q131 13 84 35L84 215Q221 154 328 154Q448 154 528 213.50Q608 273 631 379L250 379Z"  horiz-adv-x="897" vert-adv-y="2048"  />

      
      <glyph glyph-name="uni044E" unicode="&#x044E;" d="M307 920L307 547L459 547Q487 717 620.50 827.50Q754 938 938 938Q1155 938 1295.50 805.50Q1436 673 1436 469Q1436 251 1298 116.50Q1160-18 938-18Q750-18 619.50 92.50Q489 203 461 383L307 383L307 0L125 0L125 920L307 920M936 774Q807 774 723 687.50Q639 601 639 469Q639 323 721.50 234Q804 145 936 145Q1081 145 1165 231.50Q1249 318 1249 467Q1249 601 1160.50 687.50Q1072 774 936 774Z"  horiz-adv-x="1499" vert-adv-y="2048"  />

      
      <glyph glyph-name="uni044F" unicode="&#x044F;" d="M510 920L852 920L852 0L670 0L670 336L618 336Q541 336 480.50 303.50Q420 271 369 190L248 0L33 0L168 197Q255 327 344 369Q143 443 143 633Q143 718 197 785Q251 852 334 886Q417 920 510 920M670 479L670 756L510 756Q423 756 376.50 722Q330 688 330 623Q330 566 375 522.50Q420 479 510 479L670 479Z"  horiz-adv-x="976" vert-adv-y="2048"  />

      
      <glyph glyph-name="uni0451" unicode="&#x0451;" d="M897 266L897 90Q811 33 727.50 7.50Q644-18 530-18Q392-18 288.50 52Q185 122 134.50 231.50Q84 341 84 471Q84 680 203.50 809Q323 938 514 938Q702 938 807.50 809.50Q913 681 913 432L266 432Q310 156 575 156Q730 156 897 266M270 553L733 553Q728 658 671 719Q614 780 518 780Q415 780 352 721.50Q289 663 270 553M239 1259Q239 1259 253 1272.50Q267 1286 307 1286Q347 1286 374 1259Q401 1232 401 1192Q401 1152 374 1124Q347 1096 307 1096Q267 1096 239 1124Q211 1152 211 1192Q211 1232 239 1259M620 1259Q620 1259 634 1272.50Q648 1286 688 1286Q728 1286 755 1259Q782 1232 782 1192Q782 1152 755 1124Q728 1096 688 1096Q648 1096 620 1124Q592 1152 592 1192Q592 1232 620 1259Z"  horiz-adv-x="980" vert-adv-y="2048"  />

      
      <glyph glyph-name="uni0452" unicode="&#x0452;" d="M614 1270L614 1106L317 1106L317 799L322 799Q374 865 446.50 901.50Q519 938 596 938Q737 938 823 842Q909 746 909 563L909-109Q909-209 885-280Q861-351 815.50-392.50Q770-434 711-452.50Q652-471 575-471L457-471L457-307L526-307Q592-307 631-296Q670-285 691.50-255.50Q713-226 720-185.50Q727-145 727-74L727 569Q727 671 678.50 732Q630 793 547 793Q487 793 434.50 762Q382 731 317 659L317 0L135 0L135 1106L10 1106L10 1270L135 1270L135 1397L317 1397L317 1270L614 1270Z"  horiz-adv-x="1034" vert-adv-y="2048"  />

      
      <glyph glyph-name="uni0453" unicode="&#x0453;" d="M315 756L315 0L133 0L133 920L719 920L719 756L315 756M492 1321L690 1321L469 1032L360 1032L492 1321Z"  horiz-adv-x="741" vert-adv-y="2048"  />

      
      <glyph glyph-name="uni0454" unicode="&#x0454;" d="M659 543L659 379L279 379Q302 273 382 213.50Q462 154 582 154Q688 154 825 215L825 35Q778 13 700-2.50Q622-18 551-18Q345-18 214.50 111Q84 240 84 442Q84 669 207 803.50Q330 938 539 938Q613 938 672 922.50Q731 907 805 874L805 680Q730 731 672 750.50Q614 770 551 770Q447 770 375 709Q303 648 281 543L659 543Z"  horiz-adv-x="897" vert-adv-y="2048"  />

      
      <glyph glyph-name="uni0455" unicode="&#x0455;" d="M664 862L664 682Q520 778 397 778Q342 778 309 754.50Q276 731 276 694Q276 664 326.50 622.50Q377 581 500 510Q616 434 661.50 378Q707 322 707 252Q707 132 621 57Q535-18 403-18Q318-18 245.50 1Q173 20 84 66L84 262Q260 141 385 141Q444 144 482 171.50Q520 199 520 246Q520 271 496.50 297Q473 323 435 346.50Q397 370 351 395Q305 420 259 450Q213 480 175 513.50Q137 547 113.50 592.50Q90 638 90 688Q90 804 172 871Q254 938 393 938Q521 938 664 862Z"  horiz-adv-x="788" vert-adv-y="2048"  />

      
      <glyph glyph-name="uni0456" unicode="&#x0456;" d="M315 920L315 0L133 0L133 920L315 920M301.50 1274.50Q301.50 1274.50 317.75 1258.25Q334 1242 334 1198Q334 1154 301.50 1122Q269 1090 225 1090Q181 1090 149 1122Q117 1154 117 1198Q117 1242 149 1274.50Q181 1307 225 1307Q269 1307 301.50 1274.50Z"  horiz-adv-x="448" vert-adv-y="2048"  />

      
      <glyph glyph-name="uni0457" unicode="&#x0457;" d="M315 920L315 0L133 0L133 920L315 920M10 1181Q10 1181 24 1194.50Q38 1208 78 1208Q118 1208 145 1181Q172 1154 172 1114Q172 1074 145 1046Q118 1018 78 1018Q38 1018 10 1046Q-18 1074-18 1114Q-18 1154 10 1181M304.50 1180.50Q304.50 1180.50 318.75 1194.25Q333 1208 373 1208Q413 1208 440 1181Q467 1154 467 1114Q467 1074 440 1046Q413 1018 373 1018Q333 1018 304.50 1046Q276 1074 276 1114Q276 1153 304.50 1180.50Z"  horiz-adv-x="448" vert-adv-y="2048"  />

      
      <glyph glyph-name="uni0458" unicode="&#x0458;" d="M307 920L307-121Q307-263 263.50-341Q220-419 125-471L-12-336Q125-279 125-135L125 920L307 920M293.50 1274.50Q293.50 1274.50 309.75 1258.25Q326 1242 326 1198Q326 1154 293.50 1122Q261 1090 217 1090Q173 1090 141 1122Q109 1154 109 1198Q109 1242 141 1274.50Q173 1307 217 1307Q261 1307 293.50 1274.50Z"  horiz-adv-x="448" vert-adv-y="2048"  />

      
      <glyph glyph-name="uni0459" unicode="&#x0459;" d="M6-18L428 920L496 920L657 559L905 559Q1056 559 1143.50 478Q1231 397 1231 276Q1231 146 1143 64Q1055-18 889-18L694-18L451 588L205-18L6-18M866 395L711 395L827 145L866 145Q1044 145 1044 276Q1044 335 997.50 365Q951 395 866 395Z"  horiz-adv-x="1265" vert-adv-y="2048"  />

      
      <glyph glyph-name="uni045A" unicode="&#x045A;" d="M766 0L766 393L315 393L315 0L133 0L133 920L315 920L315 557L766 557L766 920L948 920L948 557L1149 557Q1296 557 1382 474Q1468 391 1468 279Q1468 233 1450 186.50Q1432 140 1396 97Q1360 54 1295.50 27Q1231 0 1149 0L766 0M948 393L948 164L1104 164Q1199 164 1242.50 192.50Q1286 221 1286 287Q1286 346 1243 369.50Q1200 393 1104 393L948 393Z"  horiz-adv-x="1486" vert-adv-y="2048"  />

      
      <glyph glyph-name="uni045B" unicode="&#x045B;" d="M717 1284L717 1120L307 1120L307 799L311 799Q363 865 436 901.50Q509 938 586 938Q727 938 813 842Q899 746 899 563L899 0L717 0L717 569Q717 671 668.50 732Q620 793 537 793Q477 793 424.50 762Q372 731 307 659L307 0L125 0L125 1120L0 1120L0 1284L125 1284L125 1397L307 1397L307 1284L717 1284Z"  horiz-adv-x="1024" vert-adv-y="2048"  />

      
      <glyph glyph-name="uni045C" unicode="&#x045C;" d="M502 1276L700 1276L479 987L371 987L502 1276M309 920L309 539L385 539Q434 539 477.50 577.50Q521 616 569 700L696 920L895 920L743 668Q664 535 578 469Q636 443 679 397.50Q722 352 776 260L926 0L705 0L580 250Q545 320 493 357.50Q441 395 383 395L309 395L309 0L127 0L127 920L309 920Z"  horiz-adv-x="974" vert-adv-y="2048"  />

      
      <glyph glyph-name="uni045E" unicode="&#x045E;" d="M897 920L246-471L43-471L356 197L0 920L207 920L455 401L692 920L897 920M473 1339L678 1339L449 1038L336 1038L473 1339Z"  horiz-adv-x="897" vert-adv-y="2048"  />

      
      <glyph glyph-name="uni045F" unicode="&#x045F;" d="M465-205L465 0L133 0L133 920L315 920L315 164L766 164L766 920L948 920L948 0L645 0L645-205L465-205Z"  horiz-adv-x="1085" vert-adv-y="2048"  />

      
      <glyph glyph-name="uni0490" unicode="&#x0490;" d="M946 1505L946 1217L354 1217L354 0L154 0L154 1397L745 1397L745 1505L946 1505Z"  horiz-adv-x="970" vert-adv-y="2048"  />

      
      <glyph glyph-name="uni0491" unicode="&#x0491;" d="M315 756L315 0L133 0L133 920L537 920L537 1006L719 1006L719 756L315 756Z"  horiz-adv-x="741" vert-adv-y="2048"  />

      
      <glyph glyph-name="uni2013" unicode="&#x2013;" d="M1042 584L1042 453L-18 453L-18 584L1042 584Z"  horiz-adv-x="1024" vert-adv-y="2048"  />

      
      <glyph glyph-name="uni2014" unicode="&#x2014;" d="M2066 584L2066 453L-18 453L-18 584L2066 584Z"  horiz-adv-x="2048" vert-adv-y="2048"  />

      
      <glyph glyph-name="uni2018" unicode="&#x2018;" d="M328 1415L328 1376Q271 1327 256.50 1279Q242 1231 246 1157Q296 1151 325 1118Q354 1085 354 1036Q354 976 319.50 943.50Q285 911 231 911Q170 911 132 966.50Q94 1022 94 1102Q94 1217 154.50 1299.50Q215 1382 328 1415Z"  horiz-adv-x="448" vert-adv-y="2048"  />

      
      <glyph glyph-name="uni2019" unicode="&#x2019;" d="M121 911L121 950Q178 999 192.50 1047Q207 1095 203 1169Q153 1175 123.50 1208Q94 1241 94 1290Q94 1350 128.50 1382.50Q163 1415 217 1415Q278 1415 316 1360Q354 1305 354 1225Q354 1110 294 1027Q234 944 121 911Z"  horiz-adv-x="448" vert-adv-y="2048"  />

      
      <glyph glyph-name="uni201A" unicode="&#x201A;" d="M121-236L121-197Q178-148 192.50-99.50Q207-51 203 23Q153 29 123.50 61.50Q94 94 94 143Q94 203 128.50 235.50Q163 268 217 268Q278 268 316 213Q354 158 354 78Q354-37 294-120Q234-203 121-236Z"  horiz-adv-x="448" vert-adv-y="2048"  />

      
      <glyph glyph-name="uni201C" unicode="&#x201C;" d="M764 1415L764 1376Q707 1327 692.50 1279Q678 1231 682 1157Q732 1151 761.50 1118Q791 1085 791 1036Q791 976 756.50 943.50Q722 911 668 911Q607 911 568.50 966.50Q530 1022 530 1102Q530 1217 590.50 1299.50Q651 1382 764 1415M317 1415L317 1376Q260 1327 246 1279.50Q232 1232 236 1157Q286 1151 315 1118Q344 1085 344 1036Q344 976 309.50 943.50Q275 911 221 911Q160 911 122 966.50Q84 1022 84 1102Q84 1217 144 1299.50Q204 1382 317 1415Z"  horiz-adv-x="874" vert-adv-y="2048"  />

      
      <glyph glyph-name="uni201D" unicode="&#x201D;" d="M557 911L557 950Q614 999 628.50 1047Q643 1095 639 1169Q589 1175 559.50 1208Q530 1241 530 1290Q530 1350 564.50 1382.50Q599 1415 653 1415Q715 1415 753 1360Q791 1305 791 1225Q791 1110 730.50 1027Q670 944 557 911M111 911L111 950Q168 999 182.50 1047Q197 1095 193 1169Q143 1175 113.50 1208Q84 1241 84 1290Q84 1350 118.50 1382.50Q153 1415 207 1415Q268 1415 306 1360Q344 1305 344 1225Q344 1110 284 1027Q224 944 111 911Z"  horiz-adv-x="874" vert-adv-y="2048"  />

      
      <glyph glyph-name="uni201E" unicode="&#x201E;" d="M580-236L580-197Q637-148 651.50-99.50Q666-51 662 23Q612 29 582.50 61.50Q553 94 553 143Q553 203 587.50 235.50Q622 268 676 268Q737 268 775 213Q813 158 813 78Q813-37 753-120Q693-203 580-236M131-236L131-197Q188-148 202.50-99.50Q217-51 213 23Q163 29 133.50 61.50Q104 94 104 143Q104 203 138.50 235.50Q173 268 227 268Q289 268 327 213Q365 158 365 78Q365-37 304.50-120Q244-203 131-236Z"  horiz-adv-x="874" vert-adv-y="2048"  />

      
      <glyph glyph-name="uni2020" unicode="&#x2020;" d="M510 1415Q554 1415 578 1365Q602 1315 602 1223Q602 1176 592.50 1112Q583 1048 564.50 957.50Q546 867 543 848Q697 901 803 901Q858 901 903 877.50Q948 854 948 811Q948 765 907 741Q866 717 811 717Q742 717 541 770Q545 723 559 567Q573 411 581.50 309.50Q590 208 598 76Q606-56 606-139Q606-215 602-268.50Q598-322 587.50-371.50Q577-421 555-446Q533-471 500-471Q455-471 430.50-434.50Q406-398 398.50-338.50Q391-279 391-178Q391-35 415 265.50Q439 566 461 770Q300 717 201 717Q143 717 99 738.50Q55 760 55 805Q55 847 90 874Q125 901 205 901Q316 901 461 848Q403 1119 403 1221Q403 1415 510 1415Z"  horiz-adv-x="1003" vert-adv-y="2048"  />

      
      <glyph glyph-name="uni2021" unicode="&#x2021;" d="M500 1415Q600 1415 600 1231Q600 1153 541 893Q701 950 809 950Q869 950 908.50 927Q948 904 948 854Q948 811 902 788.50Q856 766 801 766Q778 766 752.50 769Q727 772 695.50 778.50Q664 785 645 789.50Q626 794 588 804.50Q550 815 541 817Q541 769 557 647Q573 525 573 475Q573 424 557 300Q541 176 541 125Q587 144 670.50 161Q754 178 803 178Q858 178 903 154.50Q948 131 948 88Q948-6 805-6Q752-6 676.50 11.50Q601 29 541 51Q561-22 580.50-124Q600-226 600-283Q600-471 502-471Q473-471 453-454.50Q433-438 422.50-409.50Q412-381 407.50-351.50Q403-322 403-289Q403-171 463 51Q303-6 193-6Q55-6 55 88Q55 133 101 155.50Q147 178 205 178Q246 178 327.50 161Q409 144 463 127Q463 128 444 303Q430 476 430 479Q430 526 446 650Q462 774 463 817Q294 766 201 766Q146 766 100.50 788.50Q55 811 55 854Q55 950 201 950Q248 950 336 930.50Q424 911 465 891Q442 960 422.50 1069Q403 1178 403 1245Q403 1312 426.50 1363.50Q450 1415 500 1415Z"  horiz-adv-x="1003" vert-adv-y="2048"  />

      
      <glyph glyph-name="uni2022" unicode="&#x2022;" d="M183.50 877Q183.50 877 220.75 914.50Q258 952 362 952Q466 952 541 877Q616 802 616 698Q616 594 541 519Q466 444 362 444Q258 444 183.50 519Q109 594 109 698Q109 802 183.50 877Z"  horiz-adv-x="724" vert-adv-y="2048"  />

      
      <glyph glyph-name="uni2026" unicode="&#x2026;" d="M253 191Q253 191 271 209Q289 227 340 227Q391 227 427 191Q463 155 463 104Q463 53 427 17.50Q391-18 340-18Q289-18 253 17.50Q217 53 217 104Q217 155 253 191M937 191Q937 191 955 209Q973 227 1024 227Q1075 227 1111 191Q1147 155 1147 104Q1147 53 1111 17.50Q1075-18 1024-18Q973-18 937 17.50Q901 53 901 104Q901 155 937 191M1621 191Q1621 191 1639 209Q1657 227 1708 227Q1759 227 1795 191Q1831 155 1831 104Q1831 53 1795 17.50Q1759-18 1708-18Q1657-18 1621 17.50Q1585 53 1585 104Q1585 155 1621 191Z"  horiz-adv-x="2048" vert-adv-y="2048"  />

      
      <glyph glyph-name="uni2030" unicode="&#x2030;" d="M1731 455Q1665 455 1617 407Q1569 359 1569 293Q1569 226 1617 178.50Q1665 131 1731 131Q1798 131 1845 178Q1892 225 1892 293Q1892 359 1845 407Q1798 455 1731 455M1731 606Q1859 606 1951.50 514Q2044 422 2044 293Q2044 164 1951.50 72Q1859-20 1731-20Q1602-20 1509.50 71.50Q1417 163 1417 293Q1417 422 1509.50 514Q1602 606 1731 606M1198 1415L279-20L125-20L1044 1415L1198 1415M987 606Q1115 606 1207.50 514Q1300 422 1300 293Q1300 164 1207.50 72Q1115-20 987-20Q858-20 766 71.50Q674 163 674 293Q674 422 766 514Q858 606 987 606M987 455Q921 455 873 407Q825 359 825 293Q825 226 873 178.50Q921 131 987 131Q1054 131 1101.50 178.50Q1149 226 1149 293Q1149 359 1101.50 407Q1054 455 987 455M340 1413Q468 1413 560.50 1321Q653 1229 653 1100Q653 971 560.50 878.50Q468 786 340 786Q211 786 119 878Q27 970 27 1100Q27 1229 119 1321Q211 1413 340 1413M340 1262Q274 1262 226 1214Q178 1166 178 1100Q178 1033 226 985.50Q274 938 340 938Q408 938 455 985Q502 1032 502 1100Q502 1166 454.50 1214Q407 1262 340 1262Z"  horiz-adv-x="2068" vert-adv-y="2048"  />

      
      <glyph glyph-name="uni2039" unicode="&#x2039;" d="M252 461L555 0L375 0L74 461L375 922L555 922L252 461Z"  horiz-adv-x="641" vert-adv-y="2048"  />

      
      <glyph glyph-name="uni203A" unicode="&#x203A;" d="M389 461L86 922L266 922L567 461L266 0L86 0L389 461Z"  horiz-adv-x="641" vert-adv-y="2048"  />

      
      <glyph glyph-name="uni20AC" unicode="&#x20AC;" d="M944 1343L944 1151Q856 1235 686 1235Q553 1235 478 1153.50Q403 1072 385 922L874 922L825 770L367 770L367 705L367 635L780 635L729 483L385 483Q404 324 480 243Q556 162 686 162Q851 162 944 248L944 51Q910 24 835 4Q760-16 657-16Q253-16 188 483L43 483L92 635L172 635Q170 653 170 705Q170 750 172 770L43 770L92 922L186 922Q253 1415 657 1415Q752 1415 828.50 1393.50Q905 1372 944 1343Z"  horiz-adv-x="1024" vert-adv-y="2048"  />

      
      <glyph glyph-name="uni2116" unicode="&#x2116;" d="M1696 1442L1696 1262L1575 1262Q1505 1262 1475.50 1226.50Q1446 1191 1446 1108L1446 0L1274 0L340 1075L340 0L152 0L152 1397L311 1397L1257 299L1257 1178Q1257 1285 1335 1363.50Q1413 1442 1538 1442L1696 1442M1894 827Q1824 827 1775 778.50Q1726 730 1726 659Q1726 588 1775 538.50Q1824 489 1894 489Q1964 489 2014 538.50Q2064 588 2064 659Q2064 729 2014.50 778Q1965 827 1894 827M1894 936Q2010 936 2090.50 855Q2171 774 2171 659Q2171 544 2090.50 463.50Q2010 383 1894 383Q1778 383 1698 463.50Q1618 544 1618 659Q1618 775 1698.50 855.50Q1779 936 1894 936M1636 299L2165 299L2165 209L1636 209L1636 299Z"  horiz-adv-x="2228" vert-adv-y="2048"  />

      
      <glyph glyph-name="uni2122" unicode="&#x2122;" d="M489 651L489 1346L225 1346L225 1466L891 1466L891 1346L625 1346L625 651L489 651M983 651L983 1466L1184 1466L1386 815L1391 815L1587 1466L1784 1466L1784 651L1659 651L1659 1335L1655 1335L1450 651L1327 651L1112 1346L1108 1346L1108 651L983 651Z"  horiz-adv-x="2048" vert-adv-y="2048"  />

      

  </font>
</defs>
</svg>
